<svg xmlns="http://www.w3.org/2000/svg" width="134" height="78" viewBox="0 0 134 78">
    <defs>
        <style>
            .cls-1{fill:#f64346}.cls-2{fill:#fff}
        </style>
    </defs>
    <g id="Group_821" data-name="Group 821" transform="translate(0 18)">
        <path id="Rectangle_148" d="M0 0h134v78H0z" class="cls-1" data-name="Rectangle 148" transform="translate(0 -18)"/>
        <path id="logo_設計王" d="M68.309 29.919a1.09 1.09 0 0 1-.718-.508.535.535 0 0 1-.09-.3c.007-.132 0-.265 0-.406a3.687 3.687 0 0 1 .337-.323 4.571 4.571 0 0 1 .45-.264l-.259-.162c-.065-.346.168-.47.447-.586a1.468 1.468 0 0 0-.193-.17.97.97 0 0 1-.475-.81c-.075-.676.692-1.167 1.248-1.145a5.077 5.077 0 0 0 .589-.044.477.477 0 0 1 .063 0l1.048.068c.076.139.01.3.038.481l-.5.027-.021.18.182.178v.565l-.413.567a1.95 1.95 0 0 1-.944.211l-.337.166c-.01.145.135.185.179.246l.427.156a1.569 1.569 0 0 1 1.411.692v.513l-.229.41c-.179.083-.372.176-.568.263a.579.579 0 0 1-.208.055c-.238.007-.478.023-.717.023a2.987 2.987 0 0 1-.747-.083zm.194-1.252a.847.847 0 0 0-.3.465.71.71 0 0 0 .568.323 1.416 1.416 0 0 0 1.175-.238l.1-.2-.135-.259-.648-.2a2.348 2.348 0 0 1-.487.03.5.5 0 0 0-.058 0 .289.289 0 0 0-.218.079zm.271-2.755c-.271.249-.335.481-.2.7a.749.749 0 0 0 .3.234c.221.129.42.007.621-.017a.53.53 0 0 0 .254-.647l-.245-.278-.406-.076zm27.117 2.465a.876.876 0 0 1-.468-.4.716.716 0 0 1-.067-.327c-.007-.5 0-1 0-1.507 0-.072-.012-.145-.022-.247l-.6-.027a5.549 5.549 0 0 1 1.263-1.241c.187.143 0 .337.057.508l.118.1H97l.118.053a1.039 1.039 0 0 1-.06.6h-.935c-.121.207-.05.408-.062.6a6.057 6.057 0 0 0 0 .626c.008.2.034.39.051.575l.3.189a.82.82 0 0 0 .463-.07 1.1 1.1 0 0 1 .374-.082.565.565 0 0 1-.054.638c-.215.047-.413.1-.615.133a.882.882 0 0 1-.142.011 1.586 1.586 0 0 1-.547-.133zm-36.435.067a1.382 1.382 0 0 0-.488-.045c-.181-.218-.494-.254-.621-.5-.114-.22-.247-.431-.363-.632 0-.193.011-.364 0-.534a1.519 1.519 0 0 1 .33-.975 1.307 1.307 0 0 1 .828-.51l.441-.1.673.118a1.668 1.668 0 0 1 .864.985 1.1 1.1 0 0 1-.053.643 2.4 2.4 0 0 1-.444.013 1.878 1.878 0 0 0-.518.03 4.367 4.367 0 0 0-1.331.024c-.087.209.066.341.15.458a.971.971 0 0 0 .787.4 1.934 1.934 0 0 0 1.152-.275.394.394 0 0 1 .085-.036.419.419 0 0 1 .064-.011c.2.21.128.433.038.664a4.1 4.1 0 0 1-1.022.308.78.78 0 0 1-.2.025 1.742 1.742 0 0 1-.372-.05zm.531-1.941a1.04 1.04 0 0 0 .31-.015c.025 0 .047-.033.074-.054v-.217a1.223 1.223 0 0 0-.554-.443h-.367a1.1 1.1 0 0 0-.567.369l-.1.3a1.469 1.469 0 0 0 .325.061c.177-.01.353-.03.529-.03a1.651 1.651 0 0 1 .35.026zm2.545 1.806c-.1-.04-.21-.074-.311-.11v-.6a.792.792 0 0 1 .253 0c.206.08.4.179.619.276h.385c.1-.093.291-.113.37-.28a1.122 1.122 0 0 0-.576-.473 3.9 3.9 0 0 1-.716-.446.7.7 0 0 1-.282-.46c-.016-.082-.035-.164-.059-.271a.517.517 0 0 0 .053-.1.775.775 0 0 1 .7-.594 1.962 1.962 0 0 0 .317-.1l.819.134.31.151v.579c-.188.047-.188.047-.37-.089l-.482-.156a.512.512 0 0 0-.543.253l.185.266a4.635 4.635 0 0 1 1.085.641.824.824 0 0 1 .3.874c-.1.392-.427.55-.82.642a1.673 1.673 0 0 1-.383.044 2.362 2.362 0 0 1-.854-.182zm30.578.087c-.009-.088-.022-.161-.023-.234 0-.522-.008-1.043 0-1.565a1.408 1.408 0 0 0-.178-.62c-.073-.159-.262-.2-.429-.25l-.355.052a1.347 1.347 0 0 0-.551.435v2.134a.682.682 0 0 1-.741-.021v-2.993l.11-.106h.505l.107.05.038.254a4.092 4.092 0 0 1 .7-.318 2.9 2.9 0 0 1 .675-.011l.423.19.03.027a1.685 1.685 0 0 1 .419 1.23c.005.55 0 1.1 0 1.69l-.136.121zm-4.629-.173l-.211.152c-.737.132-.864.118-1.333-.158l-.2-.5a2.317 2.317 0 0 0 .085-.239c.084-.354.384-.524.706-.665a3.221 3.221 0 0 1 .472-.137 1.474 1.474 0 0 0 .607-.29c.019-.22-.162-.323-.226-.469a1.189 1.189 0 0 0-1.388.361.143.143 0 0 1-.14-.155v-.567a2.014 2.014 0 0 1 1.885-.265l.342.256.231.49v1.79c.127.1.127.1.487.061a.417.417 0 0 1-.171.474 3.1 3.1 0 0 1-.521.1 1.315 1.315 0 0 1-.624-.24zm-.524-1.1a.53.53 0 0 0-.407.448l.1.291.429.132.3-.089.242-.234c-.033-.246.061-.488-.091-.7a.5.5 0 0 0-.088-.008 1.41 1.41 0 0 0-.484.158zm-22.126 1.211c.011-.173.03-.33.031-.487v-2.504l.164-.136a.769.769 0 0 1 .583.119v3.038a.708.708 0 0 1-.337.086 1.038 1.038 0 0 1-.441-.116zm-13.33.111a4.3 4.3 0 0 1-.549-.082v-4.652l.12-.107c.721 0 1.417-.033 2.105.012a3.459 3.459 0 0 1 1.294.266 3.245 3.245 0 0 1 .944.726 1.438 1.438 0 0 1 .186.319c.059.109.113.22.176.344a3.344 3.344 0 0 0 .09.567.82.82 0 0 1-.013.468 3 3 0 0 1-.2.7 2.48 2.48 0 0 1-.608.744 2.012 2.012 0 0 1-1.038.529 1.1 1.1 0 0 0-.253.113c-.131 0-.3-.008-.467 0-.526.029-1.052.052-1.58.052zm1.223-.681a2.965 2.965 0 0 0 1.014-.117 2.147 2.147 0 0 0 .878-.518 1.552 1.552 0 0 0 .4-.9 1.518 1.518 0 0 0-.617-1.517 2.021 2.021 0 0 0-.948-.384 10.192 10.192 0 0 0-1.25-.048h-.378v3.473h.555c.122.005.233.007.346.01zm20.269.582v-1.178a3.48 3.48 0 0 0-.1-1.181l-.246-.205-.447-.047a1.455 1.455 0 0 0-.651.434v2.161a.413.413 0 0 1-.352.114h-.06a.426.426 0 0 1-.339-.132v-2.971l.112-.11.571.031.122.236a1 1 0 0 0 .164-.076 1.391 1.391 0 0 1 1.21-.173.93.93 0 0 1 .671.612 1.671 1.671 0 0 1 .111.608c-.007.626 0 1.253 0 1.9a2.981 2.981 0 0 1-.452.076.507.507 0 0 1-.314-.1zm6.384.024l-.138-.3c-.3-.685-.6-1.374-.914-2.056-.174-.38-.327-.767-.523-1.139-.163-.31-.274-.643-.414-.964a.268.268 0 0 1-.012-.257.69.69 0 0 1 .38-.051 1.3 1.3 0 0 0 .222 0 .691.691 0 0 1 .308.413 3.932 3.932 0 0 0 .227.549c.115.19.162.4.275.592a6.163 6.163 0 0 1 .307.645c.092.208.178.418.265.629a.542.542 0 0 0 .194.266c.035-.03.092-.056.1-.091a5 5 0 0 1 .379-.943c.178-.4.361-.793.535-1.192.1-.233.2-.469.314-.7a.865.865 0 0 1 .143-.165h.654a4.035 4.035 0 0 1 .209.357c.075.162.121.334.2.5s.176.335.245.512c.093.238.2.472.312.7.088.187.191.369.279.556.061.128.1.263.164.391a.6.6 0 0 0 .119.126l1.382-3.134h.685l.091.11-2.075 4.66h-.27c-.573-1.216-1.067-2.449-1.69-3.7-.242.437-.392.849-.582 1.241s-.348.829-.552 1.235-.36.811-.535 1.213l-.139.055zm-44.215-.3c-.126-.246-.241-.466-.352-.689a9.7 9.7 0 0 0-.474-.937c-.148-.232-.225-.5-.36-.74-.224-.4-.4-.82-.608-1.225-.235-.448-.439-.909-.661-1.361-.139-.283-.291-.561-.433-.844-.128-.256-.246-.516-.375-.773-.136-.272-.279-.541-.42-.812a3.452 3.452 0 0 1-.256-.5 3.486 3.486 0 0 0-.244-.483c-.226-.453-.418-.921-.671-1.361-.234-.406-.4-.84-.629-1.246a3.871 3.871 0 0 1-.371-.795 1.583 1.583 0 0 0-.192-.355c-.015-.024-.068-.03-.124-.052l-6.03 12.113a.5.5 0 0 1-.36.093 11.179 11.179 0 0 0-.685-.036 2.462 2.462 0 0 0-.339.042l-6.037-10.552c-.042.026-.1.042-.116.075-.118.227-.229.458-.342.688l-.15.3c-.249.526-.488 1.056-.748 1.577-.221.444-.44.888-.644 1.338-.051.111-.119.216-.173.326q-.313.644-.621 1.29l-.433.9c-.2.426-.413.85-.616 1.276s-.387.83-.585 1.243a5.4 5.4 0 0 0-.3.607 4.968 4.968 0 0 1-.389.792.8.8 0 0 1-.061.082c-.173-.062-.344-.125-.516-.185-.269-.094-.517-.225-.8-.3a7.7 7.7 0 0 1-.879-.346c-.484-.188-.973-.366-1.456-.557-.464-.183-.944-.332-1.405-.519a11.966 11.966 0 0 1-2.014-1.004 8.09 8.09 0 0 1-1.4-1.079 4.7 4.7 0 0 1-.838-.909c-.36-.286-.492-.719-.81-1.032a3.933 3.933 0 0 0-.4-.758 4.126 4.126 0 0 0-.314-.693c0-.278-.208-.5-.221-.788a4.279 4.279 0 0 0-.145-.541A5.724 5.724 0 0 1 0 18.025c.015-.341.005-.684 0-1.026a3.039 3.039 0 0 1 .114-.78c.038-.145.043-.3.073-.445a2.366 2.366 0 0 1 .121-.374 1.387 1.387 0 0 1 .143-.573c.1-.215.16-.444.256-.659a7.8 7.8 0 0 1 .358-.714 8.036 8.036 0 0 1 .815-1.2c.226-.268.448-.541.7-.792s.537-.508.823-.746c.238-.2.495-.376.751-.553a5.87 5.87 0 0 1 1.04-.614A8.935 8.935 0 0 1 6.518 9c.2-.049.384-.135.578-.2.106-.035.216-.061.326-.088.49-.117.988-.2 1.486-.279a4.984 4.984 0 0 1 .85-.046h1.03a3.5 3.5 0 0 1 .988.1 4.382 4.382 0 0 0 .46.064c.263.043.529.08.788.139.209.048.411.126.615.192a11.916 11.916 0 0 1 1.526.628 2.16 2.16 0 0 0 .291.094c.107-.206.206-.388.3-.573.21-.429.421-.858.621-1.291.144-.311.266-.629.408-.941.078-.172.184-.335.267-.506.208-.428.408-.858.614-1.287s.419-.859.625-1.29q.388-.811.768-1.626c.171-.362.314-.738.517-1.084.132-.224.208-.465.337-.687A.613.613 0 0 1 20.19 0c.262.1.545.187.817.3.384.157.764.322 1.161.452.28.092.545.222.819.329.228.089.464.163.69.255.149.061.32.1.406.269a.466.466 0 0 1-.038.122c-.261.435-.445.9-.661 1.354-.188.4-.383.789-.575 1.183q-.239.489-.481.978a6.349 6.349 0 0 0-.289.582c-.159.427-.4.821-.592 1.234q-.193.413-.389.824-.216.452-.436.9c-.112.229-.23.456-.343.685-.054.11-.093.223-.153.333-.158.292-.261.608-.417.9-.129.243-.246.491-.365.737-.163.335-.332.668-.482 1.008-.055.125-.206.229-.124.39.652 1.294 1.391 2.552 2.094 3.825s1.354 2.54 2.159 3.794c.071-.079.133-.12.152-.173.107-.3.294-.573.4-.877a8.837 8.837 0 0 1 .409-.817q.318-.654.625-1.313c.18-.386.349-.776.529-1.162.064-.138.152-.266.218-.4.2-.4.383-.807.577-1.209.181-.375.384-.742.545-1.124.127-.3.287-.6.4-.9.033-.087.09-.166.129-.251.188-.415.407-.817.587-1.236.08-.187.187-.378.258-.565a.5.5 0 0 1 .517-.32c.146-.009.294 0 .441 0H31.9a.761.761 0 0 1 .315.4c.171.413.378.813.572 1.218q.5 1.032.995 2.064c.2.41.406.816.607 1.225.064.129.12.26.182.389.218.453.439.905.656 1.359.2.413.39.828.588 1.241.148.31.3.617.452.926.157.325.318.648.463.977.043.1.074.175.224.163l5.32-11.128.182-.149a.866.866 0 0 1 .106 0 2.3 2.3 0 0 0 .273.041c.262.005.525 0 .788 0 .659-.012 1.317-.031 1.976-.041.133 0 .266.028.4.038a.455.455 0 0 0 .184-.011.544.544 0 0 1 .334-.009 1.539 1.539 0 0 0 .308 0l.133.11a2.653 2.653 0 0 1-.107.32c-.147.309-.3.615-.456.922-.076.153-.155.3-.23.458-.152.308-.3.618-.454.926-.215.434-.434.866-.649 1.3q-.209.424-.408.852c-.157.336-.331.666-.479 1a11.419 11.419 0 0 0-.57 1.216 3.142 3.142 0 0 1-.232.427c-.215.434-.42.872-.635 1.305-.262.528-.533 1.051-.793 1.58-.087.177-.145.366-.225.547-.057.129-.129.254-.2.379q-.218.405-.438.809c-.009.017-.03.031-.033.048a3.775 3.775 0 0 1-.366.793c-.214.527-.493 1.026-.727 1.544-.183.4-.411.792-.607 1.192-.147.3-.268.607-.412.906-.131.272-.279.538-.415.809q-.136.269-.258.543a6.57 6.57 0 0 1-.3.577c-.084.15-.142.312-.211.468l-.091.2a4.286 4.286 0 0 1-.748.061c-.247.007-.5-.01-.752-.035zM8.929 23.2c.23-.43.437-.854.623-1.288.164-.385.371-.755.555-1.133.205-.42.407-.842.61-1.264s.409-.861.616-1.291c.132-.274.271-.545.4-.82.106-.222.2-.45.305-.672.292-.6.593-1.2.885-1.8.237-.488.465-.979.7-1.468l.243-.516a.776.776 0 0 0-.164-.171 11.845 11.845 0 0 0-.863-.439 4.51 4.51 0 0 0-.636-.208 2.2 2.2 0 0 0-.845-.165.1.1 0 0 1-.032-.008l-.116-.075c-.309-.027-.578-.069-.847-.07a6.657 6.657 0 0 0-1 .057 4.427 4.427 0 0 1-.67.114.285.285 0 0 0-.143.053.774.774 0 0 1-.479.106.775.775 0 0 1-.182.107 3.987 3.987 0 0 0-.919.4 7.181 7.181 0 0 0-1.243.847 7.077 7.077 0 0 0-.521.554 4.872 4.872 0 0 0-.91 1.438c-.106.252-.2.51-.3.791a1.147 1.147 0 0 1-.046.361 1.518 1.518 0 0 0-.1.64v.883a.6.6 0 0 0 .036.249 1.254 1.254 0 0 1 .1.574c.059.11.156.211.16.314.01.236.207.408.227.634a6.325 6.325 0 0 0 1.1 1.5c.223.212.474.4.71.6a4.871 4.871 0 0 0 1.027.637 7.589 7.589 0 0 0 1.473.521.65.65 0 0 0 .166.012h.083zM65.8 24.453v-.268l.363-.25c.181.055.355.063.459.235v.291c-.115.2-.32.212-.568.225zm4.489-4.905v-3.274a.519.519 0 0 1 .521-.117.647.647 0 0 0 .395-.007.332.332 0 0 1 .133-.01H73.66c.071 0 .143.017.214.024a1.492 1.492 0 0 0 .247.017c.174-.013.348-.038.547-.062l.133.125a7.094 7.094 0 0 0 0 1.006c-.024.338.005.674.006 1.011a5.062 5.062 0 0 0 0 .979l-.175.151a.922.922 0 0 0-.526-.022.483.483 0 0 1-.459-.1l-.073-.184a.321.321 0 0 0-.1-.037c-.619 0-1.239-.006-1.858 0a.9.9 0 0 0-.206.053v.466a.569.569 0 0 1-.349.067 1.232 1.232 0 0 0-.136 0c-.155.012-.309.029-.465.045zm1.126-2.354v.872c0 .025.023.051.056.119h2.015c.036 0 .071-.033.1-.048a3.505 3.505 0 0 0 .072-.508 3.594 3.594 0 0 0-.072-.517 1.232 1.232 0 0 0-.258-.056H71.78a.455.455 0 0 0-.363.138zm5.912 2.182a.49.49 0 0 0 .023-.391.973.973 0 0 1 .009-.409 6.1 6.1 0 0 0 0-.7c-.019-.45-.028-.9-.02-1.352.007-.427 0-.855 0-1.282 0-.273.031-.546.043-.819.006-.148 0-.3 0-.444 0-.034-.032-.067-.06-.121H75.244c-.09.005-.178.011-.22-.062v-.831a.484.484 0 0 1 .328-.077h1.93c.1-.061.127-.131.09-.21a.5.5 0 0 1-.006-.274c.018-.254.005-.51 0-.765a1.49 1.49 0 0 1-.021-.336 4.811 4.811 0 0 0 .029-1.1c0-.1.03-.176.032-.275a4.79 4.79 0 0 1 1.259.08l.079.192c-.227.155-.191.393-.271.593a9.549 9.549 0 0 1 0 2c.055.105.153.1.249.1h1.895l.161.117a1.369 1.369 0 0 0 0 .75c-.054.107-.154.1-.251.1h-1.793a.268.268 0 0 0-.242.061c.008.193.022.377.022.562v4.643a.488.488 0 0 1-.147.427 2.037 2.037 0 0 1-.362.011 1.612 1.612 0 0 0-.554.051zm-25 .177c-.008-.087-.023-.169-.023-.25v-2.73c0-.1-.017-.2-.032-.373l.1-.164H56c.118.07.092.161.092.244V19.422a1.942 1.942 0 0 1-.948.052c-.06-.087-.147-.165-.077-.3.023-.042-.025-.115-.042-.179h-1.658c-.125.164.066.4-.136.557zm2.553-1.473a.215.215 0 0 0 .22-.149c-.018-.157-.048-.352-.061-.548a1.023 1.023 0 0 1 .036-.248c.016-.086.034-.17-.056-.234a8.9 8.9 0 0 0-1.692.019c0 .185-.006.374 0 .563a1.987 1.987 0 0 0 .033.6h1.52zm6.211 1.22c-.321-.1-.621-.266-.946-.359s-.556-.332-.838-.356c-.33.173-.576.311-.831.432a3.761 3.761 0 0 1-.644.257c-.323.085-.613.3-.99.215l-.423-.47a.351.351 0 0 1-.124-.335c.226-.18.534-.122.79-.222s.525-.162.824-.251c.073-.149.366-.1.454-.307-.288-.313-.6-.607-.85-.937a9.673 9.673 0 0 1-.739-.993l.665-.4h.155c.068.08.15.164.218.257a4.713 4.713 0 0 0 1.213 1.269c.09.058.137.173.287.175a3.387 3.387 0 0 0 .594-.838c.128-.275.28-.542.431-.808a.376.376 0 0 0 .025-.307 1.1 1.1 0 0 0-.455-.045c-.065 0-.131.006-.2 0-.23-.008-.462 0-.693 0h-2.021v-.837c.038-.023.069-.058.106-.062a1.775 1.775 0 0 1 .584.029c.145-.013.257-.031.369-.032.85 0 1.7 0 2.552-.005a3.033 3.033 0 0 0 .306-.038c.1-.011.206-.018.316-.028l.719.641c0 .066.009.13.015.214l-.278.161c-.2.434-.374.883-.6 1.309a4.443 4.443 0 0 1-.875 1.2 10.121 10.121 0 0 0 2.434.734l.088.14c-.255.254-.344.627-.675.845-.33-.081-.654-.148-.963-.248zm26.526-.4v-.811l.151-.089c.436-.04.829-.038 1.214-.037h2.077a7.564 7.564 0 0 1 1.1.044l.112-.1v-2.656a.73.73 0 0 0-.081-.225c-.13.01-.23.023-.331.023h-2.237c-.247 0-.494-.028-.724-.042a1.136 1.136 0 0 1 0-.86H92.2a1.4 1.4 0 0 0 .063-.282c.005-.665 0-1.329.005-1.994a.366.366 0 0 0-.111-.291 3.261 3.261 0 0 1-.562.009c-.1 0-.2-.008-.3-.007h-2.52c-.123 0-.246.016-.4.027l-.136-.111v-.884c.12 0 .232-.011.344-.011h8.222c.122 0 .245-.009.382-.014a.374.374 0 0 1 .1.351 1.4 1.4 0 0 0 .013.36.33.33 0 0 1-.146.322 2.7 2.7 0 0 0-.31-.036h-3.283l-.157.13v2.33a.485.485 0 0 0 .359.1H96.7a2.178 2.178 0 0 1 .052.761.587.587 0 0 1-.081.153h-2.996a.276.276 0 0 0-.255.081v2.746a.226.226 0 0 0 .228.09h3.566c.124 0 .247.025.371.028a1.9 1.9 0 0 0 .257-.03L98 18.1v.794a.22.22 0 0 1-.228.1H87.828a.249.249 0 0 1-.211-.094zm-16.938-3.4a.945.945 0 0 1-.078-.215 1.114 1.114 0 0 1 .068-.621h3.774a3.219 3.219 0 0 1-.057.835zm-18.129-.163a.165.165 0 0 1-.109-.184c.031-.218-.067-.449.064-.661h3.249l.151.131c-.028.233.068.474-.1.715zm21.29-1.212a3.394 3.394 0 0 0-.736-.038h-.316c-.346-.007-.692 0-1.038 0H70.7c-.2-.238-.054-.512-.106-.741.059-.122.155-.117.251-.116h3.274c.1 0 .213-.028.313.095v.71l-.132.106a.587.587 0 0 0-.46-.016zm-16.956-.1l-.809-.566c.091-.086.164-.166.248-.233a2.782 2.782 0 0 0 .748-.931 2.688 2.688 0 0 0 .162-.682 6.027 6.027 0 0 0 .059-1.187c0-.092-.022-.194.108-.266h3.252c.133.056.11.169.11.271v1.594a2.517 2.517 0 0 0 .09.852h.715a1.446 1.446 0 0 0 .2-.924l.127-.125a.3.3 0 0 1 .066.009 4.085 4.085 0 0 1 .873.325.547.547 0 0 1 0 .188c-.119.319-.24.637-.376.95a.8.8 0 0 1-.526.4 3.241 3.241 0 0 1-1.889-.087l-.147-.184a.929.929 0 0 1-.2-.607v-1.803H58.41a.34.34 0 0 0-.1.3 1.193 1.193 0 0 1-.1.665.167.167 0 0 0-.022.082 2.023 2.023 0 0 1-.615 1.294c-.188.213-.37.43-.568.661zm-2.509-.117c-.28-.006-.559 0-.841-.033a4.971 4.971 0 0 0-.824.031c-.095.005-.191.022-.26-.089v-.671c.035-.071.108-.091.2-.089h2.983a.273.273 0 0 1 .274.1c-.074.208.068.451-.058.7-.236.017-.461.041-.687.048-.127 0-.255.006-.382.006s-.269 0-.404-.003zm16.658-1.26a2.851 2.851 0 0 0-.454 0 2.7 2.7 0 0 1-.529 0l-.149-.125c.042-.271-.093-.564.122-.809.159.011.3.027.443.028h3.179c.1 0 .2-.024.307-.029a1.021 1.021 0 0 1 .179.014 1.51 1.51 0 0 0 .637-.03l.161.08v.868a5.2 5.2 0 0 0-.549 0c-.13.005-.26.01-.39.008H72.009c-.2 0-.4.009-.6.009a3.142 3.142 0 0 1-.375-.014zm-19.023-.317v-.743a.708.708 0 0 1 .18-.064c.125-.011.252 0 .378 0h3.652l.127.122v.675l-.141.116H52.22a.213.213 0 0 1-.208-.106zm21.581-1.263h-.409c-.408.005-.817 0-1.225 0h-1.27c-.028-.041-.089-.089-.085-.132.022-.238-.079-.491.086-.717h3.647c.025 0 .051.031.1.062v.767c-.184.016-.368.02-.55.02zm-21.135-.233v-.695a1.033 1.033 0 0 1 .206-.044h2.952a.227.227 0 0 1 .23.1c-.039.227.068.485-.069.717a.478.478 0 0 1-.334.049 1.181 1.181 0 0 0-.123-.008h-2.261c-.1 0-.2.018-.351.032z" class="cls-2" data-name="logo/設計王" transform="translate(18 15)"/>
    </g>
</svg>
