<svg xmlns="http://www.w3.org/2000/svg" width="90" height="78" viewBox="0 0 90 78">
    <defs>
        <style>
            .cls-1{fill:#fff}.cls-2{fill:#6d817a}
        </style>
    </defs>
    <g id="Group_381" data-name="Group 381" transform="translate(-1436.001 -30)">
        <path id="Rectangle_176" d="M0 0h90v78H0z" class="cls-1" data-name="Rectangle 176" transform="translate(1436 30)"/>
        <path id="logo_Livingdesign" d="M12.926 18.805v-.382l.307-.293-.375-.3c-.064-.346.157-.494.312-.684L13 16.9v-.343c.2-.443.743-.565 1.484-.328a.785.785 0 0 1 .618-.1c.112.047.163.135.134.313l-.334.164-.205-.375c-.038.112-.067.153-.058.176.042.1.1.191.136.267-.174.623-.515.763-1.515.6l-.105.1c.048.1.056.136.073.14a3.38 3.38 0 0 0 .418.093c.263.033.529.04.791.081a1.482 1.482 0 0 1 .334.133c.236.557.15.855-.3 1.146a1.247 1.247 0 0 1-.674.2 1.2 1.2 0 0 1-.871-.362zm.4-.36l.117.417c.506.267.737.212 1.074-.23v-.292a.722.722 0 0 0-.684-.209 1.923 1.923 0 0 1-.242.006zm.527-1.183c.4-.223.46-.556.172-1.022h-.343c-.297.469-.242.787.167 1.022zm-13.419.385A1.461 1.461 0 0 1 .313 15.7a1.381 1.381 0 0 1 2.028-.193 1.472 1.472 0 0 1 .076 2.109c-.065-.061-.133-.12-.2-.184s-.11-.118-.165-.178l.264-.581-.059-.038c-.046.068-.093.136-.137.205s-.084.136-.136.221c-.248-.1-.352-.331-.539-.491.11-.174.347-.218.341-.448l-.008.01v-.006h.006a.293.293 0 0 0 0-.407h-.005v-.006l.008.009c0-.167-.137-.211-.243-.224a.719.719 0 0 0-.381.062.417.417 0 0 0-.2.585c.05.11.121.21.2.34-.089.071-.183.138-.268.216a.6.6 0 0 0-.185.666.524.524 0 0 0 .539.337.718.718 0 0 0 .7-.379l.338.348a1.123 1.123 0 0 1-.86.376 1.448 1.448 0 0 1-.993-.402zm6.909.019a2.105 2.105 0 0 1-.261-.531c.163-.739.447-1 1.1-1.035a.9.9 0 0 1 .968.73.44.44 0 0 1-.438.122 1.042 1.042 0 0 0-.19-.007c-.223.02-.45 0-.685 0a1.53 1.53 0 0 0-.018.68l.251.223.424.019.408-.185.14-.262c.059.182-.01.244-.109.291-.066.065-.12.154-.2.193a1.017 1.017 0 0 1-.434.081 1.388 1.388 0 0 1-.955-.32zm.493-.805a1.33 1.33 0 0 0 .609-.038l-.028-.567-.41-.031a.558.558 0 0 0-.17.635zm18.056.861c-.005-.564 0-1.127 0-1.737l-.285.253-.144-.106c.151-.263.3-.5.431-.752a4.6 4.6 0 0 1 .342-.812.624.624 0 0 1-.027.6 2.192 2.192 0 0 0-.126.8c.007.564 0 1.128 0 1.692 0 .1.043.223-.126.307a1.1 1.1 0 0 1-.064-.245zM9.9 17.937a3.17 3.17 0 0 0-.416-.031v-.583a4.784 4.784 0 0 0 .437.466c.17.139.378.082.606.05l.092-.279c-.317-.359-.86-.231-1.13-.66v-.382c.36-.574.888-.413 1.416-.315v.541c-.216-.291-.379-.573-.745-.533a.381.381 0 0 0-.345.266c.287.383.818.283 1.214.67l.065.392a.881.881 0 0 1-.8.429 3.359 3.359 0 0 1-.394-.031zm29.324-.107l-.017-.157a1.627 1.627 0 0 0 .848-.043l.025-.339a9.608 9.608 0 0 0-1.752-.044l-.07-.165a1.45 1.45 0 0 1 .566-.055c.08 0 .159.006.238 0 .251-.01.5 0 .813 0l-.148-.2.559-.323c-.491-.018-.913-.032-1.335-.05-.014 0-.026-.041-.069-.111a.846.846 0 0 1 .177-.047h1.442c.144 0 .267.024.306.223l-.766.413a1.356 1.356 0 0 0 .3.1c.359.008.717 0 1.1 0v.231h-1.1l-.086.5a.991.991 0 0 1-.535.21 1.293 1.293 0 0 1-.496-.143zm-23.851.1a.376.376 0 0 0 .242-.421c-.027-.284.012-.574.013-.862a3.106 3.106 0 0 0-.035-.35l-.248-.064a1.334 1.334 0 0 1 .6-.092h.24l.066.307a.915.915 0 0 1 .745-.324.623.623 0 0 1 .661.66c.012.315 0 .631 0 .965l.23.19a2.6 2.6 0 0 1-1.1-.075l.188-.027a2.347 2.347 0 0 0-.029-1.47c-.022-.014-.044-.039-.067-.041-.091-.01-.184-.012-.252-.016-.4.2-.445.606-.389 1.445l.27.151a2.3 2.3 0 0 1-.539.059c-.202-.008-.396-.028-.596-.038zm-10.637.02c-.276-.014-.552-.01-.828-.006h-.409c-.024 0-.048-.019-.1-.039l.3-.123v-2.607l-.293-.068v-.06c.351-.007.7-.018 1.053-.021.063 0 .126 0 .19.01a1.63 1.63 0 0 0 .246.008 2.2 2.2 0 0 1 1.118.227 1.308 1.308 0 0 1 .753 1.32 1.267 1.267 0 0 1-.828 1.14 2.958 2.958 0 0 1-1.08.223l-.122-.004zm-.214-2.8a.946.946 0 0 0-.064.234 127.57 127.57 0 0 0 0 2.143 1.427 1.427 0 0 0 .077.316 2.014 2.014 0 0 0 1-.185 1.165 1.165 0 0 0 .388-.681A2.661 2.661 0 0 0 5.87 15.8a.838.838 0 0 0-.66-.639 1.447 1.447 0 0 0-.253-.019c-.141 0-.285.012-.435.012zm6.878 2.791l.235-.185v-1.412l-.283-.15a1.763 1.763 0 0 1 .636-.056c.082 0 .164.007.247 0a2.6 2.6 0 0 1 .048.817c.01.261 0 .522 0 .8l.248.183zm22.574-.149a.725.725 0 0 1 .161-.1c.307-.084.62-.149.923-.247a.5.5 0 0 0 .386-.378c-.138-.009-.273-.009-.406-.008s-.234 0-.35-.005a1.791 1.791 0 0 0-.188 0 .9.9 0 0 1-.549-.1 1.1 1.1 0 0 1 .6-.09 2.122 2.122 0 0 0 .223 0c.25-.014.5 0 .768 0l.06-.387h-1.566l-.115-.215a1.5 1.5 0 0 1 .574-.055c.079 0 .158.006.236 0 .266-.01.533 0 .825 0l.031-.311h-1.3l-.059-.257h1.359l-.025-.314c-.279 0-.542 0-.8-.015h-.206a1.088 1.088 0 0 1-.585-.092 1.216 1.216 0 0 1 .638-.1 1.454 1.454 0 0 0 .413-.024l-.209-.346.16-.126.243.311-.047.172h.9c.144-.128.153-.374.422-.4l-.07.368a.318.318 0 0 0 .1.043c.2 0 .4 0 .6.007a1.472 1.472 0 0 1 .261.078 1.141 1.141 0 0 1-.273.106c-.426.006-.851 0-1.3 0l-.024.328h1.344l-.021.229h-1.3l-.023.329c.278.009.55.009.823.008s.564 0 .855.009l-.085.231H35.8v.407l1.544.021c0 .178-.092.178-.174.177h-1.189a.93.93 0 0 0 .634.481c.247.079.5.136.753.2a1.513 1.513 0 0 1-1.666-.522c-.268.472-.749.526-1.2.631a1.132 1.132 0 0 1-.258.045.408.408 0 0 1-.266-.089zm-2.81.069c-.177-.34-.072-.734-.141-1.123a6.474 6.474 0 0 1-1.243.034l-.02-.211h1.3v-.521a.5.5 0 0 0-.428-.031.613.613 0 0 1-.387 0l-.03-.131c.02-.025.027-.043.036-.044l2.293-.258.075.11c-.42.21-.9.128-1.322.313v.52a4.461 4.461 0 0 0 .787-.03 3.445 3.445 0 0 1 1.049.006c-.067.206-.224.2-.359.2-.346.014-.693.014-1.04.019h-.416a3.313 3.313 0 0 0-.016.917 1.283 1.283 0 0 0 .552.056c.081 0 .162-.007.243 0 .265.011.531 0 .821 0l.063-.477.17-.1a.85.85 0 0 1-.061.745zm13.648-.153a2.6 2.6 0 0 1-1.665-1.05 1.811 1.811 0 0 1 .02-2.008 2.842 2.842 0 0 1 1.07-.906 7.107 7.107 0 0 1 .794-.318 4.07 4.07 0 0 1-1.516-.436 1.685 1.685 0 0 1-.637-2.34 2.619 2.619 0 0 1 .946-1.04c.112-.07.221-.147.357-.239-.168-.167-.325-.313-.471-.47a1.928 1.928 0 0 1-.571-1.528 2.422 2.422 0 0 1 .847-1.707 3.768 3.768 0 0 1 1.888-.8 3.717 3.717 0 0 1 2 .175c.347.133.67.332 1.055.527.072-.056.178-.13.276-.216a2.005 2.005 0 0 1 1.388-.552 1.539 1.539 0 0 1 .24.015.934.934 0 0 1 .667 1.476c-.559.364-.945.336-1.345-.1-.179-.224-.018-.59-.318-.785a1.385 1.385 0 0 0-.685.394c.105.15.2.3.307.435a2.391 2.391 0 0 1-.126 2.658 2.7 2.7 0 0 1-1.631.961 5.7 5.7 0 0 1-2.38-.044c-.283-.069-.566-.141-.9-.223a2.957 2.957 0 0 0-.384.361.824.824 0 0 0 .523 1.368 3.779 3.779 0 0 0 .56.029h.655c.369 0 .739 0 1.108.006a7.179 7.179 0 0 1 1.7.225 2.413 2.413 0 0 1 1.789 2.383 3.513 3.513 0 0 1-1.827 3.284 3.753 3.753 0 0 1-1.974.563c-.185 0-.371.005-.556.005a5.812 5.812 0 0 1-1.201-.102zm1.042-4.282a.676.676 0 0 0-.339.085 2.714 2.714 0 0 0-.852.959 2.261 2.261 0 0 0-.139 1.369 1.855 1.855 0 0 0 1.314 1.544 3.543 3.543 0 0 0 1.137.087 2.47 2.47 0 0 0 2.144-2.07 1.54 1.54 0 0 0-1.429-1.917c-.382-.042-.767-.058-1.151-.086v.023h-.4c-.095 0-.189.001-.282.006zm0-8.157a1.117 1.117 0 0 0-.614.869c-.076.388-.1.787-.14 1.173.045.439.066.865.138 1.282a1.12 1.12 0 0 0 .788 1.034 1.58 1.58 0 0 0 1.022-.044 1.1 1.1 0 0 0 .371-.3 1.742 1.742 0 0 0 .35-.949 8.13 8.13 0 0 0-.008-2.012c-.1-.845-.591-1.214-1.189-1.214a1.863 1.863 0 0 0-.715.161zM26.418 17.8c-.032 0-.064-.037-.126-.075a.506.506 0 0 1 .415-.1 1.069 1.069 0 0 0 .16 0c.2-.015.4 0 .589 0a2.4 2.4 0 0 0 .024-1.048 3.821 3.821 0 0 0-.48-.012 3.554 3.554 0 0 1-.533-.019l-.012-.084c.059-.03.117-.083.177-.085.278-.009.557 0 .873 0a7.056 7.056 0 0 0 0-.918c-.367-.1-.75 0-1.2-.1a.627.627 0 0 1 .5-.142 1.165 1.165 0 0 0 .139 0c.2-.014.4 0 .66 0l-.33-.486.139-.14.352.395-.051.211 1.271.061c.01 0 .019.017.047.045a.393.393 0 0 1-.407.116.854.854 0 0 0-.175-.008c-.211.021-.425 0-.658 0a5.169 5.169 0 0 0-.04.94 2.5 2.5 0 0 0 .51.025 2.038 2.038 0 0 1 .657.06.448.448 0 0 1-.426.132.876.876 0 0 0-.152 0c-.182.018-.368 0-.569 0V17.6a3 3 0 0 0 .579.027 3.093 3.093 0 0 1 .736.049c-.089.071-.123.122-.157.122h-1.166zm-25.259-.188a.435.435 0 0 1-.341-.4c-.024-.265.093-.421.484-.611l.568.568c-.182.308-.381.456-.6.456a.506.506 0 0 1-.111-.013zM38.168 16l.247-.21v-1.07a1.2 1.2 0 0 0 .351-.035.833.833 0 0 1 .544.017c-.094.195-.244.193-.39.192a.465.465 0 0 0-.252.043l-.02.137h.519l.075.2-.645.08c.2.2.409.072.605.168l.021.16-.561.072a.821.821 0 0 0 .575.12 2.081 2.081 0 0 1 .214 0c.279.016.56.011.84 0h.246a2.149 2.149 0 0 0 .651-.052c-.1-.059-.15-.107-.2-.11-.156-.01-.313 0-.482 0v-.22l.612-.053c-.181-.209-.433-.042-.661-.215a.874.874 0 0 1 .232-.13c.146-.025.306.019.467-.114-.218-.158-.471 0-.69-.162.069-.044.116-.1.165-.1.236-.009.472 0 .734 0v1.108l.233.1a.773.773 0 0 1-.12.7l-.137-.066.03-.467h-2.947l-.032.512-.163.024c-.1-.216-.021-.423-.061-.629zm-36.877.383a.545.545 0 0 1-.208-.636l.324-.172.375.142v.412c-.138.077-.221.26-.423.26a.383.383 0 0 1-.068-.005zm31.548-.667l.081-.547h-2.8c-.094.209.056.445-.158.618-.226-.244-.074-.521-.125-.8a5.211 5.211 0 0 1 .848-.035c.207 0 .415.006.627-.01l.041-.18c.015-.062.032-.122.047-.179.244.013.158.234.242.36.219.015.44.012.66.009a5.95 5.95 0 0 1 .866.03 1.267 1.267 0 0 1-.187.811zm6.506-.056l.212-.147.068-.223.292.09.331-.142.081.5-.444-.075c-.078 0-.186.088-.317.088a.336.336 0 0 1-.224-.09zm-27.665-.186c-.077-.109-.06-.177.092-.421l.386-.018.212.252-.161.3a.687.687 0 0 1-.232.048.347.347 0 0 1-.297-.161zm27.679-.343l.218-.165-.059-.259.369.08.344-.174a1.855 1.855 0 0 0 0 .247 1.32 1.32 0 0 0 .06.2c-.109.178-.232.031-.356.013l-.46.215zm-17.885-2.2l-1.16-2.578q-.562-1.247-1.114-2.501-.5-1.119-.994-2.24c-.033-.074-.073-.144-.121-.24h-.893v-.3h4.522l.038.3h-1.23l2.078 4.705a11.551 11.551 0 0 0 .629-1.542c.22-.514.42-1.037.627-1.557s.4-1.014.609-1.547a.982.982 0 0 0-.427-.047 1.358 1.358 0 0 1-.277-.007.769.769 0 0 0-.2 0 .409.409 0 0 1-.473-.193c.089-.049.162-.123.235-.124q1.061-.014 2.122 0c.077 0 .154.066.232.1-.052.227-.187.223-.316.218h-.08c-.144.007-.289 0-.428 0-1.089 2.6-2.055 5.206-3.115 7.754H21.7c-.155.001-.184-.104-.226-.197zm15.68-.3l-.02-.289h1.078c.01-.138.024-.244.024-.35v-5a3.976 3.976 0 0 0-.082-.776.938.938 0 0 0-.885-.759 1.7 1.7 0 0 0-1.63.836 3.4 3.4 0 0 0-.569 1.817c-.031 1.364-.014 2.729-.016 4.093a.49.49 0 0 0 .032.1 1.012 1.012 0 0 0 .337.026 1.59 1.59 0 0 1 .236 0 .726.726 0 0 0 .138 0 .332.332 0 0 1 .386.179 1.424 1.424 0 0 1-.206.138.41.41 0 0 1-.159.006h-3.889c-.065 0-.13-.01-.227-.018l.029-.3h1.11V5.412c-.376-.033-.741-.064-1.106-.1-.016 0-.027-.044-.065-.108a1.231 1.231 0 0 1 .191-.145.378.378 0 0 1 .158-.006h2.765c.051 0 .1.011.179.02v1.743c.16-.267.267-.462.389-.647a2.814 2.814 0 0 1 1.84-1.2 3.2 3.2 0 0 1 1.617.058 2.065 2.065 0 0 1 1.538 1.928q.052.843.059 1.689c.009 1.061 0 2.123 0 3.184v.467a1.6 1.6 0 0 0 .555.048 1.55 1.55 0 0 1 .562.052l.015.206A21.469 21.469 0 0 1 39 12.68c-.782 0-1.525-.014-1.846-.042zm-24.622.027v-.288a2.1 2.1 0 0 1 .592-.037 2.669 2.669 0 0 0 .466-.013c.068-.3.08-6.47.014-6.92-.363-.03-.727-.059-1.091-.093-.016 0-.028-.044-.065-.107.059-.048.122-.1.187-.15.009-.007.026 0 .039 0l3.079.016c.01 0 .02.017.07.063v7.2h1.138a.8.8 0 0 1 .054.14.727.727 0 0 1-.007.138.477.477 0 0 1-.142.048h-4.334zM.014 12.65l.047-.3h1.513c.07-.358.08-11.554.012-12H.021L.032.131C.348.065 5.3.052 5.789.115l.018.2A4.3 4.3 0 0 1 5 .351a4.37 4.37 0 0 0-.739.026c-.068.323-.09 11.249-.029 11.93a.614.614 0 0 0 .138.03c.961 0 1.923.009 2.884-.008a3.214 3.214 0 0 0 2.627-1.411 5.542 5.542 0 0 0 1.013-2.242l.2-.065c.029.05.066.083.066.117.007.33.009.661.01.991v2.859c-.037.037-.046.048-.057.055a.068.068 0 0 1-.034.017l-10.773.013c-.08 0-.158-.007-.292-.013zm26.135-.009l-.012-.284H27.2c.069-.346.09-6.248.03-6.954-.379-.026-.734-.049-1.088-.08-.022 0-.039-.065-.08-.138.076-.046.144-.118.218-.126a2.879 2.879 0 0 1 .37-.008h2.788v7.3H30.6l.032.293zm2.207-10.059a1.4 1.4 0 0 1-1.28-1.266A1.381 1.381 0 0 1 28.348 0a1.292 1.292 0 0 1 .028 2.582zM13.477 1.318A1.291 1.291 0 0 1 14.74 0a1.31 1.31 0 0 1 1.276 1.266 1.3 1.3 0 0 1-1.271 1.31 1.286 1.286 0 0 1-1.268-1.258z" class="cls-2" data-name="logo/Livingdesign" transform="translate(1455.5 68.833)"/>
    </g>
</svg>
