<svg xmlns="http://www.w3.org/2000/svg" id="Group_1085" width="180" height="120" data-name="Group 1085" viewBox="0 0 180 120">
    <defs>
        <style>
            .cls-1{fill:#f64346}.cls-2{fill:#fff}
        </style>
    </defs>
    <path id="Rectangle_148" d="M0 0h180v120H0z" class="cls-1" data-name="Rectangle 148"/>
    <path id="logo_設計王" d="M78.067 36.9a1.253 1.253 0 0 1-.82-.626.7.7 0 0 1-.1-.364c.008-.163 0-.327 0-.5a4.373 4.373 0 0 1 .385-.4 5.151 5.151 0 0 1 .514-.325l-.3-.2c-.074-.426.192-.58.511-.722a1.724 1.724 0 0 0-.221-.21 1.216 1.216 0 0 1-.542-1 1.41 1.41 0 0 1 1.426-1.413 5.384 5.384 0 0 0 .673-.054.506.506 0 0 1 .072 0l1.2.083c.087.171.012.369.044.593l-.569.033-.024.222.208.219v.693l-.472.7a2.094 2.094 0 0 1-1.079.261l-.385.2c-.011.179.154.228.2.3l.488.193a1.753 1.753 0 0 1 1.613.853v.633l-.262.506c-.2.1-.425.217-.649.324a.624.624 0 0 1-.238.067c-.272.009-.547.028-.82.028a3.174 3.174 0 0 1-.853-.094zm.221-1.544a1.057 1.057 0 0 0-.343.573.8.8 0 0 0 .649.4 1.524 1.524 0 0 0 1.343-.294l.118-.244-.154-.32-.741-.251a2.49 2.49 0 0 1-.556.037.533.533 0 0 0-.066 0 .317.317 0 0 0-.249.099zm.31-3.4c-.31.307-.383.594-.231.868a.868.868 0 0 0 .345.288c.253.159.48.008.709-.021a.676.676 0 0 0 .29-.8l-.28-.343-.463-.093zM109.59 35a1.027 1.027 0 0 1-.534-.494.943.943 0 0 1-.077-.4c-.008-.62 0-1.239 0-1.859 0-.089-.014-.179-.025-.3l-.687-.034a6.615 6.615 0 0 1 1.444-1.531c.213.177 0 .416.065.627l.135.118h.952l.135.065a1.376 1.376 0 0 1-.068.737h-1.068a1.525 1.525 0 0 0-.07.741 7.626 7.626 0 0 0 0 .771c.01.241.039.481.058.71l.347.234a.876.876 0 0 0 .529-.086 1.178 1.178 0 0 1 .428-.1.741.741 0 0 1-.062.786c-.246.058-.472.123-.7.164a.936.936 0 0 1-.162.014 1.7 1.7 0 0 1-.64-.163zm-41.64.083a1.469 1.469 0 0 0-.557-.056c-.207-.269-.565-.313-.709-.613-.131-.271-.282-.532-.415-.779 0-.238.012-.449 0-.659a1.971 1.971 0 0 1 .378-1.2 1.483 1.483 0 0 1 .947-.63l.5-.121.77.145a2.018 2.018 0 0 1 .987 1.215 1.457 1.457 0 0 1-.061.794 2.543 2.543 0 0 1-.508.016 1.992 1.992 0 0 0-.592.037 4.63 4.63 0 0 0-1.521.03c-.1.258.076.421.172.565a1.087 1.087 0 0 0 .9.491 2.082 2.082 0 0 0 1.316-.339.433.433 0 0 1 .1-.044.447.447 0 0 1 .073-.013.738.738 0 0 1 .043.819 4.435 4.435 0 0 1-1.168.379.83.83 0 0 1-.228.031 1.854 1.854 0 0 1-.427-.071zm.607-2.394a1.1 1.1 0 0 0 .354-.019c.029 0 .054-.041.085-.066v-.268a1.422 1.422 0 0 0-.633-.546h-.42a1.253 1.253 0 0 0-.648.455l-.109.365a1.569 1.569 0 0 0 .372.075c.2-.013.4-.037.6-.037a1.754 1.754 0 0 1 .399.038zm2.908 2.227c-.118-.049-.24-.091-.355-.135v-.745a.839.839 0 0 1 .289.005c.236.1.462.22.707.341h.44c.118-.115.332-.14.422-.345a1.31 1.31 0 0 0-.659-.583 4.419 4.419 0 0 1-.818-.551.878.878 0 0 1-.323-.567c-.019-.1-.04-.2-.067-.334a.656.656 0 0 0 .061-.129.909.909 0 0 1 .8-.733 2.121 2.121 0 0 0 .362-.119l.936.165.354.186v.714c-.215.057-.215.057-.423-.11l-.551-.192a.571.571 0 0 0-.621.312l.212.328a5.228 5.228 0 0 1 1.24.791 1.062 1.062 0 0 1 .342 1.078 1.1 1.1 0 0 1-.937.792 1.778 1.778 0 0 1-.438.054 2.531 2.531 0 0 1-.973-.226zm34.947.108c-.01-.109-.026-.2-.026-.288 0-.643-.009-1.287 0-1.93a1.841 1.841 0 0 0-.2-.765c-.083-.2-.3-.245-.49-.308l-.406.065a1.563 1.563 0 0 0-.63.536v2.632a.732.732 0 0 1-.846-.025v-3.695l.125-.131h.578l.123.061.043.313a4.52 4.52 0 0 1 .795-.392 3.07 3.07 0 0 1 .771-.013l.483.234.034.034a2.183 2.183 0 0 1 .479 1.517c.006.678 0 1.356 0 2.084l-.156.149zm-5.29-.213l-.241.187c-.842.162-.988.145-1.523-.2l-.233-.62a3.01 3.01 0 0 0 .1-.3 1.239 1.239 0 0 1 .807-.821 3.474 3.474 0 0 1 .541-.163 1.636 1.636 0 0 0 .693-.357c.022-.271-.185-.4-.258-.578a1.3 1.3 0 0 0-1.586.445.172.172 0 0 1-.16-.192v-.7a2.164 2.164 0 0 1 2.155-.327l.391.316.264.6v2.208c.145.123.145.123.556.075a.536.536 0 0 1-.2.585 3.306 3.306 0 0 1-.6.121 1.436 1.436 0 0 1-.706-.282zm-.6-1.358a.638.638 0 0 0-.465.553l.113.359.49.163.338-.11.276-.288c-.038-.3.07-.6-.1-.861a.535.535 0 0 0-.1-.01 1.531 1.531 0 0 0-.55.19zm-25.288 1.5c.013-.213.034-.407.035-.6v-3.088l.188-.168a.828.828 0 0 1 .667.147v3.747a.763.763 0 0 1-.385.106 1.118 1.118 0 0 1-.504-.152zM60 35.082a4.582 4.582 0 0 1-.627-.1v-5.739l.138-.131c.825 0 1.619-.041 2.406.015a3.7 3.7 0 0 1 1.479.328 3.758 3.758 0 0 1 1.079.9 1.811 1.811 0 0 1 .213.393c.067.135.129.272.2.424a4.427 4.427 0 0 0 .1.7 1.089 1.089 0 0 1-.015.577 3.924 3.924 0 0 1-.23.867 3.023 3.023 0 0 1-.7.917 2.245 2.245 0 0 1-1.187.652 1.213 1.213 0 0 0-.29.139c-.15 0-.342-.009-.534 0-.6.036-1.2.064-1.805.064zm1.4-.84a3.154 3.154 0 0 0 1.158-.144 2.423 2.423 0 0 0 1-.638 1.987 1.987 0 0 0 .463-1.1 1.944 1.944 0 0 0-.7-1.871 2.219 2.219 0 0 0-1.083-.474 10.8 10.8 0 0 0-1.428-.06c-.139 0-.28 0-.432.006v4.284h.635c.128-.01.257-.008.387-.003zm23.164.718v-1.453a4.62 4.62 0 0 0-.115-1.457l-.281-.253-.511-.058a1.66 1.66 0 0 0-.744.535v2.666a.45.45 0 0 1-.4.141h-.069a.468.468 0 0 1-.387-.163v-3.664l.128-.136.652.039.139.291a1.1 1.1 0 0 0 .188-.094 1.492 1.492 0 0 1 1.383-.213 1.1 1.1 0 0 1 .767.754 2.207 2.207 0 0 1 .126.75c-.008.772 0 1.545 0 2.345a3.178 3.178 0 0 1-.516.093.551.551 0 0 1-.361-.124zm7.3.03c-.05-.116-.106-.243-.158-.371-.348-.845-.687-1.694-1.045-2.536-.2-.468-.374-.945-.6-1.405-.186-.383-.313-.793-.474-1.189a.353.353 0 0 1-.014-.317.737.737 0 0 1 .435-.063 1.373 1.373 0 0 0 .253 0 .85.85 0 0 1 .352.509 5.074 5.074 0 0 0 .259.678c.132.235.185.5.314.73a7.883 7.883 0 0 1 .351.8c.106.257.2.516.3.775a.67.67 0 0 0 .222.328c.04-.037.105-.069.114-.113a6.462 6.462 0 0 1 .433-1.163c.2-.49.413-.978.612-1.47.117-.287.226-.579.359-.86a1.048 1.048 0 0 1 .164-.2h.747c.076.138.171.284.239.441.086.2.138.412.224.611s.2.414.28.632c.106.294.231.582.356.868.1.231.218.455.319.685.07.158.118.325.188.483a.721.721 0 0 0 .136.155l1.579-3.865h.782l.1.136-2.371 5.747h-.309c-.655-1.5-1.219-3.02-1.932-4.561-.277.539-.448 1.047-.665 1.531-.223.5-.4 1.023-.63 1.523s-.411 1-.612 1.5l-.159.067zm-50.531-.374c-.144-.3-.276-.575-.4-.849a12.358 12.358 0 0 0-.541-1.156c-.169-.286-.258-.617-.411-.913-.256-.494-.452-1.012-.694-1.511-.268-.552-.5-1.121-.756-1.679-.159-.349-.333-.692-.495-1.041-.146-.316-.282-.637-.429-.953-.156-.336-.319-.668-.48-1a4.395 4.395 0 0 1-.293-.622 4.442 4.442 0 0 0-.278-.6c-.258-.559-.477-1.136-.766-1.679-.267-.5-.452-1.035-.719-1.537a4.956 4.956 0 0 1-.424-.98 2.006 2.006 0 0 0-.22-.438c-.017-.03-.078-.036-.142-.064l-6.9 14.952a.545.545 0 0 1-.412.115c-.26-.023-.522-.04-.783-.044a2.617 2.617 0 0 0-.387.051L18.9 21.654c-.048.032-.113.052-.133.093-.135.281-.261.565-.39.849-.057.125-.117.249-.172.374-.284.649-.557 1.3-.855 1.945-.253.547-.5 1.095-.736 1.65-.058.137-.136.266-.2.4q-.357.794-.71 1.591l-.495 1.115c-.234.525-.472 1.048-.7 1.574-.225.51-.442 1.024-.669 1.533a6.889 6.889 0 0 0-.348.749 6.339 6.339 0 0 1-.445.977.982.982 0 0 1-.07.1c-.2-.077-.393-.154-.589-.229-.307-.116-.591-.277-.915-.365a8.421 8.421 0 0 1-1-.426c-.554-.232-1.112-.452-1.664-.687-.53-.226-1.079-.41-1.606-.64a13.317 13.317 0 0 1-2.3-1.254 9.371 9.371 0 0 1-1.6-1.331 5.655 5.655 0 0 1-.958-1.121c-.412-.353-.562-.887-.926-1.273a4.994 4.994 0 0 0-.456-.935 5.293 5.293 0 0 0-.359-.855c0-.343-.238-.623-.253-.971a5.615 5.615 0 0 0-.166-.667A7.589 7.589 0 0 1 0 22.231c.017-.421.006-.843 0-1.265A4.025 4.025 0 0 1 .138 20c.044-.179.049-.367.083-.549a3.092 3.092 0 0 1 .131-.464 1.821 1.821 0 0 1 .163-.706c.113-.265.183-.547.293-.813.123-.3.258-.594.41-.88a9.987 9.987 0 0 1 .931-1.481c.259-.331.512-.667.8-.977s.614-.627.941-.919c.272-.243.565-.464.859-.683a6.618 6.618 0 0 1 1.189-.757 9.806 9.806 0 0 1 1.511-.671c.226-.06.439-.167.661-.246.121-.043.247-.076.372-.108.56-.144 1.129-.241 1.7-.344a5.283 5.283 0 0 1 .971-.057h1.178a3.72 3.72 0 0 1 1.129.129 4.663 4.663 0 0 0 .526.079c.3.052.6.1.9.172.239.06.47.155.7.236a13.076 13.076 0 0 1 1.744.775 2.342 2.342 0 0 0 .333.116c.122-.253.236-.478.339-.707.24-.529.481-1.058.71-1.592.164-.383.3-.776.466-1.16.09-.212.21-.413.305-.624.237-.527.467-1.058.7-1.587s.479-1.059.714-1.59q.443-1 .878-2c.195-.447.359-.91.591-1.337.151-.276.237-.573.385-.848A.742.742 0 0 1 23.074 0c.3.118.623.231.934.368.439.194.873.4 1.327.558.32.113.623.273.936.405.261.11.53.2.789.315.17.075.366.127.464.332a.609.609 0 0 1-.043.15c-.3.536-.509 1.111-.755 1.67-.215.488-.437.973-.657 1.458l-.549 1.206c-.11.239-.245.471-.33.718-.181.527-.456 1.013-.676 1.522q-.22.509-.445 1.016-.247.557-.5 1.113c-.128.282-.263.562-.391.844-.061.135-.107.275-.174.41-.18.36-.3.75-.477 1.111-.148.3-.281.605-.417.909-.186.413-.38.824-.55 1.243-.063.154-.235.282-.142.481.745 1.6 1.589 3.147 2.393 4.718.8 1.553 1.548 3.133 2.467 4.679.081-.1.152-.148.173-.214.122-.373.336-.707.462-1.081.117-.348.315-.671.467-1.008q.364-.807.714-1.62c.205-.476.4-.958.6-1.433.073-.17.174-.328.25-.5.223-.5.438-.995.66-1.491.207-.462.439-.915.622-1.386.145-.374.328-.734.461-1.113.038-.107.1-.2.148-.309.215-.512.466-1.008.671-1.525.091-.23.213-.466.3-.7a.568.568 0 0 1 .591-.394c.167-.011.336 0 .5 0h3.573a.931.931 0 0 1 .36.5c.2.509.432 1 .654 1.5q.566 1.277 1.137 2.548c.228.505.464 1.007.694 1.511.073.159.137.32.208.48l.75 1.676c.226.51.446 1.022.672 1.531.17.382.346.761.517 1.143.18.4.364.8.529 1.205.049.121.084.216.256.2l6.066-13.72.208-.184a.918.918 0 0 1 .121 0 2.45 2.45 0 0 0 .312.051c.3.007.6.005.9 0 .753-.015 1.506-.038 2.259-.05.152 0 .3.035.457.046a.483.483 0 0 0 .211-.014.579.579 0 0 1 .382-.011 1.631 1.631 0 0 0 .352 0l.152.136a3.455 3.455 0 0 1-.122.395c-.168.381-.347.758-.522 1.137-.087.188-.177.376-.263.565-.174.38-.344.762-.519 1.142-.246.535-.5 1.069-.741 1.6q-.239.523-.466 1.051c-.179.414-.379.821-.548 1.236a14.622 14.622 0 0 0-.651 1.5 3.98 3.98 0 0 1-.265.527c-.245.535-.48 1.075-.726 1.61-.3.651-.61 1.3-.906 1.948-.1.219-.166.452-.257.674-.066.159-.147.313-.224.468l-.5 1c-.01.021-.034.038-.038.059a4.837 4.837 0 0 1-.419.978c-.245.649-.564 1.266-.831 1.9-.209.5-.47.977-.694 1.47-.168.368-.307.748-.471 1.117-.15.336-.319.664-.474 1q-.155.332-.295.67c-.1.244-.22.477-.341.711-.1.185-.162.384-.241.577l-.1.247a4.547 4.547 0 0 1-.855.075 8.109 8.109 0 0 1-.87-.042zm-31.124-6c.262-.53.5-1.053.711-1.589.188-.475.424-.931.635-1.4q.352-.778.7-1.559c.235-.53.468-1.062.7-1.592.151-.338.31-.673.459-1.012.121-.274.226-.555.349-.829.334-.74.678-1.477 1.011-2.218.271-.6.532-1.207.8-1.811l.278-.637a.93.93 0 0 0-.187-.211c-.323-.19-.648-.38-.986-.542a4.891 4.891 0 0 0-.727-.256 2.358 2.358 0 0 0-.966-.2.106.106 0 0 1-.036-.01l-.132-.092c-.353-.033-.661-.085-.969-.086a7.057 7.057 0 0 0-1.138.07 4.721 4.721 0 0 1-.766.14.312.312 0 0 0-.164.065.833.833 0 0 1-.547.131.872.872 0 0 1-.208.131 4.39 4.39 0 0 0-1.05.491 8.209 8.209 0 0 0-1.42 1.045 8.5 8.5 0 0 0-.6.683 6.092 6.092 0 0 0-1.04 1.773c-.121.311-.225.629-.349.976a1.52 1.52 0 0 1-.053.445 2.008 2.008 0 0 0-.109.789c0 .363 0 .726.005 1.089a.8.8 0 0 0 .041.307 1.656 1.656 0 0 1 .109.708c.068.136.178.26.183.388.012.291.236.5.26.782a7.8 7.8 0 0 0 1.252 1.845c.255.261.542.492.811.74a5.519 5.519 0 0 0 1.174.786 8.261 8.261 0 0 0 1.68.644.689.689 0 0 0 .189.015h.091zm65 1.541v-.331l.415-.309c.207.068.406.077.524.289v.358c-.131.248-.366.262-.649.278zm5.13-6.05v-4.036a.562.562 0 0 1 .6-.145.688.688 0 0 0 .451-.008.352.352 0 0 1 .152-.012h2.654a2.389 2.389 0 0 1 .245.029 1.583 1.583 0 0 0 .282.021c.2-.016.4-.047.625-.076l.152.154a9.441 9.441 0 0 0 0 1.24c-.027.417.006.831.007 1.247a6.734 6.734 0 0 0 0 1.208l-.2.186a.98.98 0 0 0-.6-.027.522.522 0 0 1-.524-.124l-.083-.227a.352.352 0 0 0-.109-.046c-.708 0-1.416-.007-2.124 0a.972.972 0 0 0-.236.065v.575a.61.61 0 0 1-.4.083 1.3 1.3 0 0 0-.156 0c-.177.015-.354.036-.532.055zm1.287-2.9v1.075c0 .031.026.062.064.147h2.3c.041 0 .081-.041.116-.059a4.646 4.646 0 0 0 .082-.626 4.763 4.763 0 0 0-.088-.644 1.319 1.319 0 0 0-.3-.068h-1.76a.5.5 0 0 0-.421.174zm6.749 2.693a.648.648 0 0 0 .026-.483 1.293 1.293 0 0 1 .01-.5 8.123 8.123 0 0 0 0-.863 29.882 29.882 0 0 1-.023-1.667c.008-.527 0-1.054 0-1.581.005-.337.036-.673.049-1.01a8.314 8.314 0 0 0 0-.547c0-.042-.037-.082-.069-.149h-2.374c-.1.007-.2.013-.252-.076v-1.03a.522.522 0 0 1 .375-.095h2.206c.117-.075.145-.162.1-.259a.669.669 0 0 1-.007-.337c.02-.313.006-.629 0-.943a1.982 1.982 0 0 1-.024-.414 6.4 6.4 0 0 0 .033-1.362c0-.121.034-.217.036-.339a5.081 5.081 0 0 1 1.439.1l.09.236c-.259.192-.218.485-.31.731a12.7 12.7 0 0 1 0 2.469c.062.13.175.126.285.121h2.166l.184.144a1.817 1.817 0 0 0 .006.925c-.062.131-.176.128-.287.124h-2.045a.291.291 0 0 0-.277.076c.009.237.025.465.026.693v5.727a.631.631 0 0 1-.168.526 2.159 2.159 0 0 1-.413.014 1.713 1.713 0 0 0-.633.063zm-28.566.218c-.01-.107-.026-.208-.026-.308v-3.368c0-.126-.019-.251-.036-.46l.111-.2h4.145c.134.086.105.2.105.3v3.875a2.065 2.065 0 0 1-1.083.064c-.068-.108-.168-.2-.088-.367.026-.052-.029-.142-.048-.221h-1.9c-.143.2.075.49-.155.687zM62.72 22.3c.107 0 .185-.034.251-.183-.021-.193-.054-.434-.07-.676a1.355 1.355 0 0 1 .041-.306c.018-.106.039-.209-.064-.288a9.425 9.425 0 0 0-1.934.023c0 .228-.007.461 0 .694a2.64 2.64 0 0 0 .038.735h.873zm7.1 1.506c-.367-.129-.71-.328-1.081-.443s-.636-.41-.957-.439c-.377.213-.658.383-.95.532a4.12 4.12 0 0 1-.736.318c-.369.1-.7.372-1.131.265l-.484-.58a.452.452 0 0 1-.142-.413c.258-.222.61-.151.9-.274s.6-.2.942-.31c.084-.184.418-.126.519-.379-.329-.386-.683-.749-.972-1.156a11.914 11.914 0 0 1-.845-1.225l.759-.5h.177c.077.1.171.2.249.318a5.653 5.653 0 0 0 1.389 1.58c.1.072.156.214.328.216a4.191 4.191 0 0 0 .679-1.034c.146-.34.32-.668.493-1a.5.5 0 0 0 .028-.378 1.173 1.173 0 0 0-.52-.055c-.075 0-.149.007-.223 0-.263-.01-.528 0-.792 0h-2.315v-1.04c.043-.028.079-.071.121-.076a1.884 1.884 0 0 1 .667.035c.166-.016.294-.039.422-.039.972 0 1.944 0 2.916-.007a3.224 3.224 0 0 0 .349-.046c.117-.013.235-.022.361-.034l.822.791.017.264-.318.2c-.225.535-.427 1.089-.69 1.615a5.484 5.484 0 0 1-1 1.482 10.945 10.945 0 0 0 2.782.906l.1.173c-.292.314-.394.773-.771 1.042-.372-.106-.741-.187-1.095-.315zm30.315-.49v-1l.172-.112a13.247 13.247 0 0 1 1.388-.046h2.373a8.015 8.015 0 0 1 1.252.054l.128-.125v-3.276a.947.947 0 0 0-.092-.278c-.149.012-.263.028-.378.029-.852 0-1.7.005-2.556 0-.282 0-.565-.035-.827-.052a1.5 1.5 0 0 1 0-1.06h3.783a1.842 1.842 0 0 0 .072-.348c.006-.82 0-1.64.006-2.46a.471.471 0 0 0-.127-.359 3.454 3.454 0 0 1-.642.011 6.44 6.44 0 0 0-.341-.009h-2.886c-.14 0-.281.02-.454.033l-.155-.137v-1.09c.137 0 .265-.013.393-.013h9.4c.14 0 .28-.011.436-.017a.486.486 0 0 1 .119.433 1.868 1.868 0 0 0 .015.444.421.421 0 0 1-.167.4 2.868 2.868 0 0 0-.355-.044h-3.752l-.179.16v2.873a.524.524 0 0 0 .411.118h3.343a2.892 2.892 0 0 1 .06.939.745.745 0 0 1-.092.188h-3.42a.3.3 0 0 0-.291.1v3.387a.249.249 0 0 0 .26.111h4.071c.142 0 .283.031.424.035a2.022 2.022 0 0 0 .294-.037l.184.164v.968a.245.245 0 0 1-.26.123h-11.364a.275.275 0 0 1-.247-.109zm-19.358-4.2a1.225 1.225 0 0 1-.089-.265 1.473 1.473 0 0 1 .078-.765h4.313a4.278 4.278 0 0 1-.065 1.03zm-20.719-.2a.206.206 0 0 1-.124-.227c.035-.268-.076-.554.073-.815h3.713l.173.161c-.032.288.078.584-.109.881zm24.332-1.495a3.6 3.6 0 0 0-.842-.047c-.121 0-.241.006-.361 0-.4-.009-.791 0-1.187 0h-1.2c-.229-.293-.062-.631-.121-.914.068-.15.177-.144.287-.144h3.738c.116 0 .244-.035.358.117v.876l-.151.13c-.299-.085-.299-.085-.522-.018zM65.011 17.3l-.924-.7c.1-.107.187-.205.284-.287a3.4 3.4 0 0 0 .855-1.148 3.535 3.535 0 0 0 .185-.841 8.015 8.015 0 0 0 .068-1.464c0-.114-.025-.239.123-.328h3.716c.152.069.126.208.126.334v1.966a3.338 3.338 0 0 0 .1 1.051h.817a1.9 1.9 0 0 0 .233-1.139l.145-.154a.318.318 0 0 1 .075.011 4.458 4.458 0 0 1 1 .4.727.727 0 0 1 0 .232c-.136.393-.275.786-.43 1.171a.922.922 0 0 1-.6.5 3.446 3.446 0 0 1-2.159-.107l-.168-.226a1.207 1.207 0 0 1-.229-.749V13.6h-1.474a.439.439 0 0 0-.115.37 1.576 1.576 0 0 1-.119.82.219.219 0 0 0-.025.1 2.581 2.581 0 0 1-.7 1.6c-.215.263-.423.53-.649.815zm-2.867-.144a9.613 9.613 0 0 1-.961-.04 5.268 5.268 0 0 0-.942.038c-.108.006-.218.027-.3-.11v-.827a.217.217 0 0 1 .228-.11h3.408a.3.3 0 0 1 .313.123c-.084.257.078.557-.067.865-.269.021-.527.051-.785.059-.145.005-.291.007-.437.007s-.301-.004-.457-.008zM81.182 15.6a3.021 3.021 0 0 0-.519 0 2.856 2.856 0 0 1-.6-.005l-.17-.154c.048-.335-.107-.7.14-1 .182.013.344.034.507.034h3.634c.117 0 .233-.029.351-.036a1.083 1.083 0 0 1 .2.017 1.6 1.6 0 0 0 .728-.036l.184.1v1.08a5.5 5.5 0 0 0-.627 0c-.148.006-.3.013-.446.01-.372-.006-.743 0-1.115 0H82.3c-.227 0-.456.012-.684.012a4.012 4.012 0 0 1-.434-.022zm-21.74-.391v-.917a.771.771 0 0 1 .206-.079c.143-.013.288 0 .432 0h4.173l.146.151v.832l-.161.143h-4.557a.238.238 0 0 1-.239-.131zm24.664-1.559h-.467c-.467.006-.933 0-1.4 0h-1.454c-.032-.051-.1-.11-.1-.163.026-.293-.09-.605.1-.884h4.168c.029 0 .058.038.112.076v.946a6.64 6.64 0 0 1-.629.025zm-24.155-.288v-.857a1.106 1.106 0 0 1 .236-.054h3.374a.252.252 0 0 1 .262.129c-.045.28.078.6-.079.884a.511.511 0 0 1-.381.061 1.253 1.253 0 0 0-.141-.01h-2.585c-.116 0-.232.022-.4.04z" class="cls-2" data-name="logo/設計王" transform="translate(34 41)"/>
</svg>
