<svg xmlns="http://www.w3.org/2000/svg" width="140" height="72" viewBox="0 0 140 72">
    <defs>
        <style>
            .cls-1{fill:#6d817a}.cls-2{fill:#fcfcfb}
        </style>
    </defs>
    <g id="Group_381" data-name="Group 381" transform="translate(-1412 -48)">
        <path id="Rectangle_176" d="M0 0h140v72H0z" class="cls-1" data-name="Rectangle 176" transform="translate(1412 48)"/>
        <path id="logo_Livingdesign" d="M15.511 22.566v-.458l.368-.351-.451-.356c-.077-.415.188-.593.374-.821l-.2-.3v-.411c.241-.532.891-.677 1.78-.393a.942.942 0 0 1 .742-.119c.134.056.2.162.161.375l-.4.2-.247-.45c-.046.135-.081.184-.069.211.051.118.116.229.163.32-.209.748-.618.915-1.818.718l-.126.124c.058.115.067.163.087.168a4.056 4.056 0 0 0 .5.111c.315.039.635.047.949.1a1.778 1.778 0 0 1 .4.16c.283.669.181 1.026-.361 1.375a1.5 1.5 0 0 1-.809.236 1.438 1.438 0 0 1-1.043-.439zm.476-.432l.141.5c.608.32.884.255 1.289-.276v-.35a.866.866 0 0 0-.821-.251 2.307 2.307 0 0 1-.29.007zm.632-1.42c.483-.267.551-.667.206-1.226h-.412c-.352.563-.285.945.206 1.226zm-16.1.462a1.753 1.753 0 0 1-.145-2.333 1.657 1.657 0 0 1 2.433-.231 1.767 1.767 0 0 1 .093 2.531c-.078-.073-.159-.144-.236-.22s-.132-.142-.2-.213l.317-.7-.07-.045c-.055.082-.111.163-.165.246s-.1.164-.163.265c-.3-.119-.423-.4-.647-.59.132-.209.417-.262.409-.537l-.009.012v-.007h.008a.352.352 0 0 0 0-.488h-.006v-.007l.009.011c0-.2-.164-.253-.292-.268a.863.863 0 0 0-.458.075.5.5 0 0 0-.239.7c.061.132.145.252.237.409-.106.085-.219.166-.321.259a.715.715 0 0 0-.222.8.629.629 0 0 0 .646.4.862.862 0 0 0 .84-.455l.406.417a1.348 1.348 0 0 1-1.032.451 1.737 1.737 0 0 1-1.191-.482zm8.291.022a2.526 2.526 0 0 1-.313-.637c.2-.887.537-1.195 1.317-1.242a1.081 1.081 0 0 1 1.161.876.528.528 0 0 1-.526.147 1.25 1.25 0 0 0-.227-.008c-.268.024-.54.005-.822.005a1.836 1.836 0 0 0-.022.816l.3.267.509.023.489-.222.168-.315c.071.219-.012.293-.131.349-.079.079-.144.185-.238.231a1.221 1.221 0 0 1-.521.1 1.666 1.666 0 0 1-1.141-.388zm.592-.966a1.6 1.6 0 0 0 .731-.045l-.033-.68-.492-.038a.669.669 0 0 0-.208.763zm21.667 1.033c-.006-.676 0-1.353 0-2.085l-.342.3-.173-.127c.182-.315.356-.605.518-.9a5.516 5.516 0 0 1 .411-.975.749.749 0 0 1-.033.72 2.63 2.63 0 0 0-.151.965c.009.677 0 1.354 0 2.03 0 .12.052.267-.151.368a1.325 1.325 0 0 1-.077-.295zm-19.191.259a3.8 3.8 0 0 0-.5-.037v-.7a5.741 5.741 0 0 0 .525.56c.2.167.454.1.727.061l.11-.335c-.38-.431-1.032-.278-1.355-.792v-.459c.432-.689 1.065-.5 1.7-.378v.65c-.259-.35-.455-.687-.894-.639a.457.457 0 0 0-.414.319c.345.46.982.34 1.456.8l.078.47a1.057 1.057 0 0 1-.963.515 4.031 4.031 0 0 1-.468-.034zm35.191-.124l-.021-.188a1.952 1.952 0 0 0 1.018-.052l.03-.406a11.53 11.53 0 0 0-2.1-.053l-.084-.2a1.74 1.74 0 0 1 .679-.066c.1 0 .191.007.285 0 .3-.012.6 0 .975 0l-.178-.245.671-.387c-.59-.021-1.1-.038-1.6-.06-.017 0-.032-.049-.083-.134a1.015 1.015 0 0 1 .212-.056h1.731c.173 0 .321.029.367.268l-.919.495a1.627 1.627 0 0 0 .364.12c.43.01.861 0 1.318 0v.278h-1.327l-.1.6a1.189 1.189 0 0 1-.642.251 1.551 1.551 0 0 1-.596-.165zm-28.622.116a.451.451 0 0 0 .29-.5c-.032-.341.015-.689.016-1.034a3.728 3.728 0 0 0-.043-.42l-.3-.077a1.6 1.6 0 0 1 .716-.11c.095 0 .191 0 .288-.006l.079.368a1.1 1.1 0 0 1 .894-.388.747.747 0 0 1 .794.792c.015.378 0 .758 0 1.158l.276.228a3.116 3.116 0 0 1-1.32-.091l.225-.033a2.816 2.816 0 0 0-.034-1.763c-.027-.017-.052-.046-.081-.05-.11-.012-.22-.015-.3-.02-.484.244-.534.727-.467 1.734l.325.181a2.756 2.756 0 0 1-.646.071c-.239-.008-.472-.031-.711-.043zm-12.764.024c-.331-.017-.662-.012-.994-.007h-.491c-.029 0-.057-.022-.114-.046l.355-.147v-3.13l-.351-.082v-.072c.421-.009.842-.021 1.263-.025.076 0 .152.006.228.012a1.956 1.956 0 0 0 .3.009 2.642 2.642 0 0 1 1.342.272 1.57 1.57 0 0 1 .9 1.584 1.52 1.52 0 0 1-.993 1.368 3.55 3.55 0 0 1-1.3.267q-.07.001-.145-.003zm-.256-3.356a1.135 1.135 0 0 0-.077.281c-.006.857-.008 1.715 0 2.572a1.712 1.712 0 0 0 .092.379 2.416 2.416 0 0 0 1.2-.222 1.4 1.4 0 0 0 .466-.817 3.193 3.193 0 0 0-.059-1.417 1 1 0 0 0-.792-.767 1.737 1.737 0 0 0-.3-.023c-.177 0-.351.015-.531.015zm8.258 3.345l.282-.222v-1.694l-.339-.18a2.116 2.116 0 0 1 .763-.067c.1 0 .2.008.3.006a3.116 3.116 0 0 1 .058.981c.012.313 0 .626 0 .958l.3.219zm27.089-.179a.87.87 0 0 1 .194-.123c.369-.1.744-.179 1.108-.3a.6.6 0 0 0 .463-.453 6.665 6.665 0 0 0-.487-.009c-.141 0-.281 0-.42-.006a2.149 2.149 0 0 0-.226 0 1.075 1.075 0 0 1-.659-.12 1.325 1.325 0 0 1 .719-.108 2.545 2.545 0 0 0 .268 0c.3-.017.6 0 .921 0l.072-.465h-1.883l-.137-.257a1.8 1.8 0 0 1 .689-.066c.1 0 .19.007.283 0 .319-.012.64 0 .99 0l.037-.373h-1.565l-.07-.308H42.7l-.03-.376c-.334-.005-.65 0-.965-.018h-.247a1.306 1.306 0 0 1-.7-.11 1.459 1.459 0 0 1 .766-.118 1.745 1.745 0 0 0 .5-.029l-.251-.415.192-.151.292.373-.056.207h1.079c.173-.154.183-.449.506-.483l-.084.441a.382.382 0 0 0 .123.051c.24.006.481 0 .721.008a1.766 1.766 0 0 1 .314.093 1.37 1.37 0 0 1-.327.127c-.511.008-1.022 0-1.562 0l-.029.394h1.613l-.025.274h-1.562l-.027.394c.334.011.66.01.988.009s.677 0 1.025.01l-.1.278h-1.89v.488l1.853.026c0 .214-.11.213-.209.212H43.181a1.116 1.116 0 0 0 .761.577c.3.1.6.163.9.243a1.816 1.816 0 0 1-2-.626c-.322.566-.9.631-1.439.757a1.359 1.359 0 0 1-.309.054.489.489 0 0 1-.321-.102zm-3.372.083c-.212-.408-.087-.881-.169-1.348a7.769 7.769 0 0 1-1.491.041l-.024-.253h1.565v-.626a.6.6 0 0 0-.514-.037.736.736 0 0 1-.464 0l-.036-.157c.023-.03.032-.051.043-.052.9-.1 1.8-.2 2.752-.31l.09.132c-.5.252-1.076.153-1.586.376v.624a5.354 5.354 0 0 0 .944-.036 4.134 4.134 0 0 1 1.258.008c-.08.247-.269.236-.43.243-.416.016-.832.017-1.248.023h-.5a3.975 3.975 0 0 0-.019 1.1 1.54 1.54 0 0 0 .662.068c.1 0 .195-.009.291 0 .318.014.637 0 .986 0l.076-.573.2-.116a1.02 1.02 0 0 1-.074.893zm16.378-.183a3.123 3.123 0 0 1-2-1.26 2.173 2.173 0 0 1 .024-2.41 3.41 3.41 0 0 1 1.284-1.088 8.528 8.528 0 0 1 .953-.381 4.885 4.885 0 0 1-1.819-.524 2.022 2.022 0 0 1-.764-2.808 3.143 3.143 0 0 1 1.135-1.249c.135-.084.265-.176.429-.286-.2-.2-.389-.376-.565-.564a2.314 2.314 0 0 1-.685-1.833A2.906 2.906 0 0 1 52.789 6.8a4.521 4.521 0 0 1 2.266-.964 4.46 4.46 0 0 1 2.4.21c.416.16.8.4 1.266.633.086-.067.214-.156.331-.259a2.406 2.406 0 0 1 1.66-.661 1.847 1.847 0 0 1 .288.017 1.12 1.12 0 0 1 .8 1.773c-.671.437-1.135.4-1.614-.121-.215-.269-.021-.709-.382-.942a1.662 1.662 0 0 0-.822.472c.127.18.239.358.368.521a2.869 2.869 0 0 1-.152 3.189 3.242 3.242 0 0 1-1.957 1.154 6.839 6.839 0 0 1-2.856-.053c-.34-.082-.679-.169-1.076-.268a3.548 3.548 0 0 0-.461.433.989.989 0 0 0 .627 1.641 4.534 4.534 0 0 0 .672.034h.786c.443 0 .886 0 1.329.007a8.615 8.615 0 0 1 2.034.27 2.9 2.9 0 0 1 2.147 2.86 4.216 4.216 0 0 1-2.192 3.941 4.5 4.5 0 0 1-2.369.676c-.222 0-.445.006-.668.006a6.975 6.975 0 0 1-1.436-.119zm1.25-5.139a.811.811 0 0 0-.407.1 3.257 3.257 0 0 0-1.023 1.153 2.713 2.713 0 0 0-.166 1.643 2.226 2.226 0 0 0 1.576 1.852 4.251 4.251 0 0 0 1.365.1 2.965 2.965 0 0 0 2.569-2.48 1.848 1.848 0 0 0-1.715-2.3c-.459-.051-.921-.07-1.381-.1v.028h-.479a2.763 2.763 0 0 0-.341.005zm0-9.789a1.34 1.34 0 0 0-.737 1.042c-.091.465-.115.945-.168 1.407.054.527.08 1.038.166 1.539a1.344 1.344 0 0 0 .946 1.24 1.9 1.9 0 0 0 1.227-.053 1.324 1.324 0 0 0 .446-.356A2.091 2.091 0 0 0 57.328 10a9.757 9.757 0 0 0-.009-2.414c-.117-1.014-.71-1.457-1.427-1.457a2.236 2.236 0 0 0-.864.194zM31.7 21.356c-.038 0-.077-.045-.151-.09a.607.607 0 0 1 .5-.117 1.283 1.283 0 0 0 .192.005c.237-.018.476 0 .706 0a2.882 2.882 0 0 0 .029-1.257 4.585 4.585 0 0 0-.571-.015 4.265 4.265 0 0 1-.64-.022l-.014-.1c.071-.036.141-.1.213-.1.334-.011.668 0 1.048 0a8.467 8.467 0 0 0 0-1.1c-.44-.117-.9 0-1.436-.123a.753.753 0 0 1 .6-.17 1.4 1.4 0 0 0 .167 0c.238-.017.478 0 .792 0l-.4-.583.165-.184.422.474-.061.253c.512.024 1.019.048 1.525.074.012 0 .023.021.056.053a.472.472 0 0 1-.488.139 1.024 1.024 0 0 0-.21-.009c-.253.025-.51.006-.789.006a6.2 6.2 0 0 0-.047 1.127 3 3 0 0 0 .612.03 2.446 2.446 0 0 1 .788.072.537.537 0 0 1-.511.159 1.051 1.051 0 0 0-.182 0c-.219.021-.441 0-.683 0v1.241a3.6 3.6 0 0 0 .7.032 3.712 3.712 0 0 1 .883.058c-.106.085-.147.146-.189.146h-1.4q-.812.004-1.626.001zm-30.309-.221a.522.522 0 0 1-.409-.479c-.029-.317.112-.506.581-.733l.682.681c-.218.37-.457.547-.716.547a.607.607 0 0 1-.138-.016zM45.8 19.2l.3-.252v-1.282a1.441 1.441 0 0 0 .422-.042 1 1 0 0 1 .653.02c-.113.234-.292.232-.467.23a.558.558 0 0 0-.3.051l-.024.164H47l.09.237-.773.1c.245.239.491.087.726.2l.025.192-.668.082a.985.985 0 0 0 .69.144 2.5 2.5 0 0 1 .257 0c.335.02.672.013 1.008 0h.3a2.579 2.579 0 0 0 .781-.063c-.125-.071-.18-.128-.239-.132-.187-.012-.376 0-.578 0v-.264l.735-.064c-.217-.251-.52-.05-.793-.258a1.049 1.049 0 0 1 .278-.156c.175-.03.367.023.56-.137-.262-.189-.565.005-.828-.195.083-.053.139-.118.2-.121.283-.011.567 0 .88 0v1.33l.279.126a.928.928 0 0 1-.144.837l-.164-.079.036-.561h-3.549l-.038.614-.2.029c-.117-.25-.022-.502-.071-.75zm-44.253.459A.654.654 0 0 1 1.3 18.9l.389-.206.45.17v.495c-.166.093-.265.311-.508.311a.46.46 0 0 1-.082-.009zm37.857-.8l.1-.657h-3.36c-.113.251.067.534-.19.741-.271-.293-.088-.625-.15-.961a6.253 6.253 0 0 1 1.018-.042c.249 0 .5.007.752-.012.015-.066.031-.142.049-.216s.038-.146.057-.215c.293.016.189.281.29.432.263.018.528.015.792.011a7.141 7.141 0 0 1 1.039.036 1.521 1.521 0 0 1-.224.974zm7.807-.067l.255-.176.081-.267.351.108.4-.171.1.6-.532-.091c-.094.006-.224.105-.381.105a.4.4 0 0 1-.272-.106zm-33.2-.224c-.093-.13-.072-.213.111-.505l.463-.022.255.3-.193.363a.824.824 0 0 1-.278.058.417.417 0 0 1-.353-.193zm33.215-.411l.261-.2-.071-.31.442.1.412-.209a2.226 2.226 0 0 0 0 .3 1.584 1.584 0 0 0 .072.237c-.131.213-.278.037-.428.016l-.552.258zm-21.457-2.634q-.7-1.547-1.392-3.094-.673-1.5-1.342-3.006-.6-1.343-1.193-2.688c-.039-.088-.087-.173-.146-.288h-1.072v-.365h5.426l.046.358H24.62l2.494 5.647a13.861 13.861 0 0 0 .755-1.851c.264-.617.5-1.245.752-1.869.241-.608.479-1.217.731-1.856a1.178 1.178 0 0 0-.512-.056 1.629 1.629 0 0 1-.332-.009.923.923 0 0 0-.239 0 .491.491 0 0 1-.567-.232c.107-.059.194-.148.282-.149q1.273-.016 2.546 0c.093 0 .185.079.278.122-.062.273-.224.267-.379.262h-.1c-.173.008-.347 0-.513 0-1.306 3.114-2.466 6.248-3.738 9.305h-.04c-.184.006-.219-.12-.269-.231zm18.816-.357l-.024-.347h1.293c.012-.166.029-.293.029-.42 0-2 .005-4 0-6a4.771 4.771 0 0 0-.1-.932 1.126 1.126 0 0 0-1.062-.91 2.039 2.039 0 0 0-1.956 1 4.082 4.082 0 0 0-.683 2.181c-.037 1.637-.017 3.274-.019 4.912a.588.588 0 0 0 .038.126 1.214 1.214 0 0 0 .4.031 1.908 1.908 0 0 1 .284 0 .872.872 0 0 0 .166 0 .4.4 0 0 1 .464.215 1.709 1.709 0 0 1-.247.166.492.492 0 0 1-.19.007h-4.663c-.078 0-.156-.012-.273-.022l.035-.361h1.333V6.494a142.6 142.6 0 0 1-1.327-.119c-.019 0-.033-.053-.078-.13a1.478 1.478 0 0 1 .229-.174.454.454 0 0 1 .19-.008h3.318c.061 0 .121.013.214.024v2.092c.192-.321.321-.554.466-.776a3.377 3.377 0 0 1 2.209-1.445 3.836 3.836 0 0 1 1.94.07 2.478 2.478 0 0 1 1.846 2.314q.062 1.012.071 2.026c.011 1.274 0 2.547 0 3.821v.561a1.922 1.922 0 0 0 .666.058 1.86 1.86 0 0 1 .674.062l.018.247a25.764 25.764 0 0 1-3.047.1c-.938-.001-1.829-.017-2.214-.052zm-29.547.034v-.346a2.523 2.523 0 0 1 .71-.045 3.2 3.2 0 0 0 .559-.015c.082-.358.1-7.764.017-8.3-.436-.036-.873-.071-1.309-.112-.019 0-.033-.053-.078-.129.071-.058.146-.12.224-.18.011-.008.031 0 .047 0l3.695.019c.012 0 .024.02.084.076V14.8h1.366a.961.961 0 0 1 .065.168.873.873 0 0 1-.009.165.573.573 0 0 1-.17.057h-5.201zM.017 15.18l.056-.362h1.816c.084-.429.1-13.864.015-14.4H.025l.013-.26c.38-.08 6.325-.1 6.908-.019l.022.241A5.162 5.162 0 0 1 6 .421a5.244 5.244 0 0 0-.89.031c-.078.393-.1 13.5-.032 14.317a.737.737 0 0 0 .165.036c1.153 0 2.307.011 3.461-.009a3.857 3.857 0 0 0 3.153-1.696 6.65 6.65 0 0 0 1.215-2.691l.243-.078c.035.06.079.1.08.141.008.4.011.793.012 1.19v3.431c-.045.044-.056.057-.068.067a.082.082 0 0 1-.041.021L.367 15.2c-.095 0-.19-.013-.35-.02zm31.363-.01l-.015-.341h1.28c.083-.416.107-7.5.036-8.345-.455-.032-.881-.059-1.306-.1-.027 0-.047-.078-.1-.166.091-.055.172-.142.261-.152a3.454 3.454 0 0 1 .444-.01h3.347v8.756h1.384l.038.351zM34.027 3.1a1.673 1.673 0 0 1-1.536-1.52A1.658 1.658 0 0 1 34.017 0a1.55 1.55 0 0 1 .033 3.1zM16.173 1.582A1.549 1.549 0 0 1 17.687 0a1.571 1.571 0 0 1 1.531 1.519 1.557 1.557 0 0 1-1.525 1.571 1.544 1.544 0 0 1-1.52-1.508z" class="cls-2" data-name="logo/Livingdesign" transform="translate(1451 73)"/>
    </g>
</svg>
