<svg xmlns="http://www.w3.org/2000/svg" width="34" height="52" viewBox="0 0 34 52">
    <defs>
        <style>
            .cls-1{fill:#cb3f48}
        </style>
    </defs>
    <path id="Path_73" d="M1716.145 396.668l-2.069-27.042v-.006l-.211-2.592a1.337 1.337 0 0 0-1.452-1.195 1.316 1.316 0 0 0-1.241 1.4l.1 1.19h-20.381l-.484-1.7a10.514 10.514 0 0 1 2.361-2.535 19.164 19.164 0 0 0 3.59-3.874 20.494 20.494 0 0 0 2.336-7.312l8.944 2.519a1.359 1.359 0 0 0 1.675-.883 1.294 1.294 0 0 0-.917-1.613l-24.515-6.9a1.388 1.388 0 0 0-1.326.321 1.269 1.269 0 0 0-.356 1.271l5.485 19.283v.007l.8 2.808-3.642 26.782a1.311 1.311 0 0 0 1.163 1.458 1.436 1.436 0 0 0 .177.011 1.335 1.335 0 0 0 1.337-1.132l2.31-16.984h22.328l1.294 16.911a1.331 1.331 0 0 0 1.346 1.205h.1a1.317 1.317 0 0 0 1.248-1.398zm-20.075-44.409a18.8 18.8 0 0 1-2.019 6.694 16.894 16.894 0 0 1-3.12 3.322c-.493.44-.976.872-1.417 1.31l-4.073-14.319zm-5.886 25.088l.461-3.388h21.055l.259 3.388z" class="cls-1" data-name="Path 73" transform="translate(-1682.149 -346.064)"/>
</svg>
