<svg xmlns="http://www.w3.org/2000/svg" width="47" height="52" viewBox="0 0 47 52">
    <defs>
        <style>
            .cls-1{fill:#cb3f48}
        </style>
    </defs>
    <path id="Union_3" d="M44.41 51.149a20.918 20.918 0 0 0-4.5-6.443 21.229 21.229 0 0 0-8.288-5.116l-6.966 11.756a1.343 1.343 0 0 1-1.148.654H23.5a1.343 1.343 0 0 1-1.148-.639l-7.094-11.645A22.262 22.262 0 0 0 2.584 51.164a1.346 1.346 0 0 1-1.733.746 1.308 1.308 0 0 1-.758-1.7 23.52 23.52 0 0 1 5.117-7.276 24.63 24.63 0 0 1 10.115-6.016 1.346 1.346 0 0 1 .289-.085q.293-.086.592-.166a14.459 14.459 0 0 1-7.833-12.789V8.865A8.952 8.952 0 0 1 17.39 0h8.872A7.21 7.21 0 0 1 32.1 2.963a2.788 2.788 0 0 0 1.813 1.12 5.133 5.133 0 0 1 4.335 5.047v14.823a14.379 14.379 0 0 1-7.608 12.624 24.272 24.272 0 0 1 11.254 6.363 23.1 23.1 0 0 1 5.02 7.28 1.308 1.308 0 0 1-.779 1.694 1.347 1.347 0 0 1-1.724-.766zm-26.494-12.19l5.568 9.141 5.463-9.223a26.664 26.664 0 0 0-5.349-.521 26.093 26.093 0 0 0-5.682.603zm-6.868-15.081A11.964 11.964 0 0 0 23.1 35.725h.5a11.889 11.889 0 0 0 11.973-11.772v-1.716h-2.3a3.59 3.59 0 0 1-3.328 2.217h-1.768a3.578 3.578 0 0 1-3.477-2.699 3.709 3.709 0 0 0-1.442-.327 4.8 4.8 0 0 0-1.684.38 3.579 3.579 0 0 1-3.474 2.641h-1.763a3.59 3.59 0 0 1-3.326-2.212h-1.963zm16.218-2.955a.9.9 0 0 0 .911.895h1.764a.9.9 0 1 0 0-1.791h-1.764a.9.9 0 0 0-.911.896zm-11.84 0a.9.9 0 0 0 .911.9H18.1a.9.9 0 1 0 0-1.791h-1.763a.9.9 0 0 0-.911.892zM29.942 17.4a3.59 3.59 0 0 1 3.322 2.2h2.309v-1.449L34.6 16.14a1.467 1.467 0 0 0-1.323-.821h-1.709a1.453 1.453 0 0 1-1.465-1.44 1.434 1.434 0 0 1 .688-1.221l.9-.555a1.426 1.426 0 0 0 .336-2.159l-.2-.232a1.482 1.482 0 0 0-2.08-.144 20.919 20.919 0 0 1-13.687 5.079h-2.078a1.469 1.469 0 0 0-1.293.764l-1.641 3.032V19.6h1.965a3.59 3.59 0 0 1 3.324-2.2H18.1a3.6 3.6 0 0 1 3.09 1.745 6.9 6.9 0 0 1 2.062-.346 6.14 6.14 0 0 1 1.861.3 3.6 3.6 0 0 1 3.063-1.7zM18.92 31.236a1.3 1.3 0 0 1-.264-1.842 1.353 1.353 0 0 1 1.862-.268 5.278 5.278 0 0 0 2.876.751 3.99 3.99 0 0 0 2.492-.668l-.023.021 1.837 1.91a6.4 6.4 0 0 1-4.309 1.368 7.814 7.814 0 0 1-4.471-1.272z" class="cls-1" data-name="Union 3"/>
</svg>
