<svg xmlns="http://www.w3.org/2000/svg" width="13" height="13" viewBox="0 0 13 13">
    <defs>
        <style>
            .cls-1{fill:none}.cls-2{clip-path:url(#clip-path)}.cls-3{fill:#aa7e56}
        </style>
        <clipPath id="clip-path">
            <path d="M0 0h13v13H0z" class="cls-1"/>
        </clipPath>
    </defs>
    <g id="icn_web" class="cls-2" data-name="icn/web">
        <path id="icn_web-2" d="M5.876 12.969a5.887 5.887 0 0 1-1.549-3.275 17.8 17.8 0 0 0 2.173.131 17.78 17.78 0 0 0 2.174-.131 5.89 5.89 0 0 1-1.548 3.275 6.463 6.463 0 0 1-1.25 0zm3.683-3.41a9.067 9.067 0 0 0 3.147-1.121 6.514 6.514 0 0 1-4.268 4.269 9.077 9.077 0 0 0 1.121-3.148zM.295 8.438a9.074 9.074 0 0 0 3.147 1.121 9.058 9.058 0 0 0 1.12 3.148A6.515 6.515 0 0 1 .295 8.438zm3.88.388a16.486 16.486 0 0 1 0-4.652 16.554 16.554 0 0 1 4.651 0A16.309 16.309 0 0 1 8.99 6.5a16.307 16.307 0 0 1-.164 2.326A16.182 16.182 0 0 1 6.5 8.99a16.173 16.173 0 0 1-2.325-.164zM9.824 6.5a17.728 17.728 0 0 0-.131-2.173 5.882 5.882 0 0 1 3.276 1.548c.019.206.031.414.031.625s-.012.419-.031.625a5.888 5.888 0 0 1-3.276 1.548A17.73 17.73 0 0 0 9.824 6.5zm-9.792.624C.012 6.918 0 6.711 0 6.5s.012-.418.032-.624a5.87 5.87 0 0 1 3.275-1.549 18.069 18.069 0 0 0 0 4.345A5.877 5.877 0 0 1 .032 7.124zm9.527-3.683A9.077 9.077 0 0 0 8.438.293a6.519 6.519 0 0 1 4.268 4.268 9.033 9.033 0 0 0-3.147-1.12zm-5-3.148a9.058 9.058 0 0 0-1.12 3.148A9.039 9.039 0 0 0 .295 4.562 6.519 6.519 0 0 1 4.562.293zM6.5 3.175a17.772 17.772 0 0 0-2.173.131A5.887 5.887 0 0 1 5.876.031C6.081.012 6.289 0 6.5 0s.42.012.626.031a5.891 5.891 0 0 1 1.547 3.275A17.755 17.755 0 0 0 6.5 3.175z" class="cls-3" data-name="icn/web"/>
    </g>
</svg>
