<svg xmlns="http://www.w3.org/2000/svg" width="9" height="11" viewBox="0 0 9 11">
    <defs>
        <style>
            .cls-1{fill:none}.cls-2{clip-path:url(#clip-path)}.cls-3{fill:#ccaf91}
        </style>
        <clipPath id="clip-path">
            <path d="M0 0h9v11H0z" class="cls-1"/>
        </clipPath>
    </defs>
    <g id="icn_writer" class="cls-2" data-name="icn/writer">
        <path id="icn_writer-2" d="M1934.3-287.138a3.226 3.226 0 0 0 .531-1.765 3.479 3.479 0 0 0-3.565-3.378 3.479 3.479 0 0 0-3.564 3.378 3.219 3.219 0 0 0 .478 1.683 3.046 3.046 0 0 0-1.506 2.754c0 2.644 1.8 3.185 4.5 3.185s4.5-.542 4.5-3.185a3.046 3.046 0 0 0-1.374-2.672zm-3.034-4.064a2.367 2.367 0 0 1 2.426 2.3 2.367 2.367 0 0 1-2.426 2.3 2.367 2.367 0 0 1-2.425-2.3 2.367 2.367 0 0 1 2.423-2.298zm-.092 8.841c-2.894 0-3.361-.621-3.361-2.106a2.018 2.018 0 0 1 1.1-1.909 3.661 3.661 0 0 0 2.357.85 3.669 3.669 0 0 0 2.287-.79 2.024 2.024 0 0 1 .982 1.848c-.006 1.487-.473 2.108-3.367 2.108z" class="cls-3" data-name="icn/writer" transform="translate(-1926.672 292.281)"/>
    </g>
</svg>
