<svg xmlns="http://www.w3.org/2000/svg" width="16.264" height="16.374" viewBox="0 0 16.264 16.374">
    <defs>
        <style>
            .cls-1{fill:#6d817a}
        </style>
    </defs>
    <g id="Group_133" data-name="Group 133" transform="translate(.002)">
        <path id="Path_12" d="M2327.331 534.347a4.236 4.236 0 0 0-4.139-4.276 106.53 106.53 0 0 0-7.832 0 4.219 4.219 0 0 0-4.07 3.748c-.069.386-.109.776-.164 1.165v6.4c.03.208.074.414.087.623a4.31 4.31 0 0 0 4.146 4.288c2.608.1 5.225.1 7.833 0a4.237 4.237 0 0 0 4.139-4.277q.117-3.83 0-7.671zm-1.428 7.4a2.943 2.943 0 0 1-3.062 3.115c-1.192.045-2.387.009-3.58.009s-2.359.036-3.536-.009a2.925 2.925 0 0 1-3.057-3.07q-.1-3.608 0-7.22a2.905 2.905 0 0 1 3.057-3.066q3.556-.076 7.116 0a2.924 2.924 0 0 1 3.062 3.111q.081 3.567-.003 7.132z" class="cls-1" data-name="Path 12" transform="translate(-2311.126 -530)"/>
        <path id="Path_13" d="M2323.63 538.214a3.734 3.734 0 1 0 4.051 3.721 3.9 3.9 0 0 0-4.051-3.721zm0 6.161a2.449 2.449 0 1 1 2.656-2.44 2.555 2.555 0 0 1-2.656 2.44z" class="cls-1" data-name="Path 13" transform="translate(-2315.498 -533.748)"/>
        <path id="Path_14" d="M2336.581 535.723a1.009 1.009 0 1 0 1.009 1.01 1.009 1.009 0 0 0-1.009-1.01z" class="cls-1" data-name="Path 14" transform="translate(-2324.077 -532.968)"/>
    </g>
</svg>
