<svg xmlns="http://www.w3.org/2000/svg" width="19.516" height="18" viewBox="0 0 19.516 18">
    <defs>
        <style>
            .cls-1{fill:#6d817a}
        </style>
    </defs>
    <path id="Path_11" d="M2328.312 464.214c-.237-4.015-4.509-7.214-9.745-7.214-5.387 0-9.755 3.387-9.755 7.566 0 3.841 3.69 7.013 8.47 7.5a.521.521 0 0 1 .47.572l-.2 1.786a.53.53 0 0 0 .761.523 22.987 22.987 0 0 0 7.9-5.549c.263-.308 1.118-1.477 1.293-1.784a6.252 6.252 0 0 0 .745-2.084 4.617 4.617 0 0 0 .078-.576 7.119 7.119 0 0 0-.017-.74zm-13.612 2.857h-2a.493.493 0 0 1-.5-.486v-3.673a.5.5 0 0 1 1 0v3.188h1.5a.487.487 0 1 1 0 .973zm1.971-.38a.385.385 0 0 1-.39.38h-.218a.385.385 0 0 1-.39-.38v-3.886a.385.385 0 0 1 .39-.38h.218a.385.385 0 0 1 .39.38zm4.64-.126a.51.51 0 0 1-.5.506.5.5 0 0 1-.338-.133c-.03-.027-2.052-2.584-2.052-2.584v2.231a.5.5 0 0 1-1 0v-3.653a.5.5 0 0 1 .871-.344c.03.033 2.023 2.568 2.023 2.568v-2.244a.5.5 0 0 1 1 0zm3.244-2.3a.487.487 0 1 1 0 .973h-1.5v.864h1.5a.487.487 0 1 1 0 .973h-2a.493.493 0 0 1-.5-.486v-3.673a.493.493 0 0 1 .5-.486h2a.487.487 0 1 1 0 .973h-1.5v.864z" class="cls-1" data-name="Path 11" transform="translate(-2308.812 -457)"/>
</svg>
