<svg xmlns="http://www.w3.org/2000/svg" width="19.516" height="13.934" viewBox="0 0 19.516 13.934">
    <defs>
        <style>
            .cls-1{fill:#6d817a}
        </style>
    </defs>
    <path id="Path_10" d="M2326.951 394h-11.409a4.071 4.071 0 0 0-4.053 4.089v5.756a4.071 4.071 0 0 0 4.053 4.089h11.409a4.072 4.072 0 0 0 4.054-4.089v-5.756a4.072 4.072 0 0 0-4.054-4.089zm-2.741 7.247l-5.337 2.568a.214.214 0 0 1-.306-.2v-5.3a.215.215 0 0 1 .311-.193l5.336 2.729a.217.217 0 0 1-.004.396z" class="cls-1" data-name="Path 10" transform="translate(-2311.488 -394)"/>
</svg>
