<?xml version="1.0" encoding="utf-8"?>
<!-- Generator: Adobe Illustrator 22.0.1, SVG Export Plug-In . SVG Version: 6.00 Build 0)  -->
<svg version="1.1" id="圖層_1" xmlns="http://www.w3.org/2000/svg" xmlns:xlink="http://www.w3.org/1999/xlink" x="0px" y="0px"
	 viewBox="0 0 263.4 321.8" style="enable-background:new 0 0 263.4 321.8;" xml:space="preserve">
<style type="text/css">
	.st0{opacity:0.29;fill:#7B7B7B;}
	.st1{fill:#1F1D1E;}
	.st2{fill:#C8E1AC;}
	.st3{fill:#F5C960;}
	.st4{fill:#4292C4;}
	.st5{fill:#F4C85F;}
	.st6{fill:#A2C486;}
	.st7{fill:#201E1F;}
	.st8{fill:#211F1F;}
	.st9{fill:#FFFFFF;}
	.st10{fill:#F09483;}
	.st11{fill:#FCFDFD;}
</style>
<g>
	
		<ellipse transform="matrix(0.5897 -0.8076 0.8076 0.5897 -183.325 176.6563)" class="st0" cx="82.2" cy="268.8" rx="16.7" ry="52.8"/>
	<g>
		<path class="st1" d="M239.3,92.1c-1.8-6.3-4.9-12.1-8.2-17.7c-1.6-2.6-3-5.4-5-7.8c-0.8-1-1.7-1.9-2.5-2.9
			c0.3-0.3,0.6-0.2,0.9-0.2c2.7-0.2,5.5-0.1,8.2-0.5c1.4-0.2,2.2-0.9,2.3-2c0.1-1.1-0.5-1.8-1.8-2.3c-2.7-1-5.4-2-8-3.1
			c-9.4-4-18.6-8.4-27.5-13.5c-7-4-14.6-6.8-22.5-8.6c-5.6-1.3-11.2-1.9-16.9-1.9c-4.1,0-8.1,0.7-12.1,1c-6.6,0.6-13.3,0.6-19.9,0.2
			c-2.8-0.2-5.5-0.4-8.2-0.9c-2.4-0.4-4.7-0.9-7.1-1.3c-1.4-0.2-2.5,0.6-2.6,1.9c-0.1,0.8,0.3,1.4,0.9,2c1.9,1.8,4.2,3,6.4,4.2
			c1.2,0.7,2.5,1.3,3.8,1.9c-0.5,0.3-1,0.5-1.4,0.7c-3.4,1.8-7,3.4-10.3,5.6c-4.5,3.1-8.8,6.5-12.5,10.6c-2.4,2.7-4.7,5.4-7,8.3
			c-3.5,4.5-6.8,9.1-9.5,14.1C76.1,85,74.1,90.4,72.3,96c-1,3-1.7,6.1-2,9.3c-0.5,5.2,0,10.4,0.7,15.6c0.6,5,2.1,9.9,3.9,14.7
			c0.2,0.6,0.6,1.2,0.6,1.9c-0.8-0.4-1.6-0.8-2.3-1.1c-3.6-1.6-7.4-2.7-11-4.1c-1.3-0.5-2.7-0.7-4.2-0.7c-5.3-0.1-10.1,1.5-14.8,3.7
			c-4.4,2-8.4,4.6-11.1,8.7c-2.5,3.8-4,7.9-3,12.5c1.4,6.5,8,10.8,14.8,7.9c4.1-1.7,6.6-5,6.8-9.7c0-0.6,0.2-0.9,0.7-1.3
			c1.2-1,2.5-1.9,3.9-2.7c4.6-2.7,9.2-1.5,13.1,1.3c0.5,0.3,0.5,0.7,0.4,1.3c-0.3,1.1-0.4,2.3-0.5,3.4c-0.2,2.2,0.5,4.2,1.4,6.2
			c0.5,1.2,1.2,1.9,2.4,2.1c4.5,1,9,2.2,13.8,2.9c-2.1,1.9-4.2,3.5-6.2,5.2c-0.5,0.4-0.8,0.3-1.3,0c-2.1-1.4-4.4-1.7-6.8-1.2
			c-3.4,0.6-6.4,2-9.2,3.8c-3.7,2.3-7.1,5-10.9,7.1c-2.9,1.6-5.9,2.9-9.2,3.4c-1.4,0.2-2.1,0.9-2.6,2.1c-0.4,1.1,0.3,1.8,1,2.5
			c0.5,0.5,1.1,0.9,1.7,1.2c2,1.1,4.2,1.9,6.4,2.4c1.1,0.2,1.2,0.4,0.8,1.4c-0.5,1.3-1.3,2.4-2.1,3.6c-0.9,1.3-0.7,2.4,0.5,3.4
			c0.6,0.5,1.3,0.7,2.1,0.8c2.2,0,4.3-0.5,6.3-1.2c0.9-0.3,1.8-0.7,2.8-1.1c0.1,0.8,0.1,1.6-0.1,2.3c-0.2,1.1-0.5,2.1-0.5,3.2
			c0,1.1,0.7,2,1.8,2.3c0.7,0.1,1.4,0.2,2.1,0.1c2.6-0.3,4.8-1.7,6.8-3.3c1.1-0.9,2.2-1.9,3.3-2.8c0,0.5,0,1,0.1,1.5
			c1,6.4,2.1,12.7,4,18.9c1.2,3.8,2.4,7.7,4.7,11.1c0.9,1.3,1,2.7,1,4c0,1.3,0.3,2.3,1.1,3.2c2,2.3,4.6,3.4,7.4,4.3
			c0.7,0.2,1.1,0.4,1.4,1.2c1.4,4.6,2.9,9.2,4.1,13.8c1.6,6.2,2.4,12.5,3.5,18.8c0.5,2.5,1,5,2.8,7.1c1.7,2,3.9,3,6.2,4
			c1.3,0.6,2.7,0.6,4.1,0.3c1.8-0.3,3.4-1,5-1.7c0.3-0.1,0.7-0.4,1-0.2c1.6,0.7,2.8-0.1,4.1-0.9c2.6-1.5,5.1-3.2,7.6-4.8
			c6.4-4.2,12.8-8.4,19-12.9c1.5-1.1,2.9-2.3,3.9-4c1.1-1.8,0.2-3.6-1.9-4c-2.5-0.4-5.1-0.5-7.6-0.6c-0.7,0-1-0.1-0.6-0.8
			c0.3-0.6,0.5-1.3,0.8-2c0.6-1.7,1.3-3.5,1.3-5.3c0-2.3-1.7-3.4-3.8-2.4c-2.8,1.4-5.6,2.8-8.3,4.5c-1,0.6-1,0.6-1.3-0.5
			c-0.5-2.1-1-4.1-2-6c-1-2.1-2.9-2.4-4.5-0.6c-1.5,1.7-2.9,3.4-4.2,5.2c-0.8,1.1-1.7,2.2-2.6,3.4c-0.8-1.8-1.3-3.4-1.8-5.1
			c-0.9-3.1-2.2-6-3.5-8.9c-0.1-0.3-0.5-0.7,0-0.9c2.2-0.7,3.7-2.3,5.4-3.5c0.7-0.5,0.9-1.2,0.8-1.9c-0.1-0.5-0.3-0.9-0.5-1.3
			c-0.4-0.6-0.5-0.9,0.5-1c1.8-0.2,3.6-0.5,5.3-1.2c2.3-0.9,4.5-1.9,6.8-2.8c1.1-0.4,2.1-1.1,3.3-1.2c4.8-0.5,9-2.5,12.8-5.2
			c5.5-4,9.2-9.4,11.4-15.8c1-2.9,1.5-5.9,1.3-8.9c-0.2-2.5-0.5-5.1-1.3-7.5c-0.2-0.6,0-0.7,0.6-0.7c1.5,0.2,3.1,0.2,4.6,0.5
			c3.7,0.7,7.3,0.5,11,0c5.6-0.7,10.9-2.4,16.2-4.1c4.8-1.5,9.4-3.8,13.9-6c0.6-0.3,1.2-0.6,1.9-0.1c0.4,0.3,0.9,0.2,1.4,0.1
			c2.3-0.4,4.5-0.4,6.8-0.1c1,0.1,1.6,0.7,1.9,1.7c0.8,2.4,2,4.4,4.5,5.5c5.6,2.4,13.5,1.7,17.9-3.8c2.7-3.3,4-7,3-11.3
			c-1.3-5.9-6.7-10.8-12.7-11.8c-1-0.2-0.8-0.4-0.4-1c2.3-2.9,4.4-6,5.9-9.4c2.5-5.6,4.2-11.5,5.5-17.5c1-4.7,1.9-9.5,2-14.3
			c0.1-5.4-0.1-10.7-1-16C241.2,99.8,240.4,95.9,239.3,92.1z M154.8,35.7c0.2-0.4,0.7-0.2,1.1-0.2c12.7-0.4,24.6,2.7,36,8.2
			c0.2,0.1,0.4,0.1,0.5,0.4c-5.6,1.9-11.3,2.8-17.3,2.2c-3.9-0.4-7.7-1.1-11.2-3c-3-1.7-5.9-3.4-8.1-6.1c-0.2-0.2-0.3-0.4-0.5-0.6
			C155.1,36.3,154.7,36,154.8,35.7z M76,154.7c-1.4-1.3-2.3-3-3.6-4.4c-3.3-3.2-7.1-5.3-11.8-5.2c-5.1,0.1-9.1,2.5-12.5,6.1
			c-0.8,0.9-0.9,2-1,3.1c-0.3,4-3.1,6-5.4,6.7c-5.3,1.5-10.1-3-9.1-8.6c0.9-5.1,3.9-8.8,8.1-11.4c3.9-2.5,8.2-4.3,12.8-5.1
			c3-0.6,6-0.5,8.9,0.8c3.4,1.5,7.1,2.5,10.4,4.3c1.6,0.9,3.3,1.8,4.9,2.6c0.3,0.1,0.4,0.3,0.4,0.6c0,0.5,0,1,0,1.4
			c0.1,3.1-0.4,6.1-1.2,9C76.6,155.3,76.4,155.1,76,154.7z M76.3,181.3c-1.4,1.1-2,2.6-2.5,4.2c-1.1,3.2-1.6,6.6-1.6,10
			c0,0.4,0.1,0.8-0.3,1.2c-2,1.7-3.5,3.9-5.6,5.5c-0.9,0.7-1.8,1.4-3,1.9c0-1.5,0.4-3,0-4.4c-0.1-0.5-0.2-0.9-0.4-1.4
			c-0.7-1.8-2.2-2.5-4-1.8c-1.9,0.8-3.8,1.7-5.8,2.2c-0.3,0.1-0.6,0.2-1,0.1c0.6-1.3,1.3-2.5,1.5-4c0.3-2.2-0.6-3.6-2.7-4.1
			c-1.9-0.4-3.8-0.7-5.8-1.8c6.1-1.6,11.2-4.5,16.2-7.8c2.7-1.8,5.4-3.5,8.5-4.5c1.9-0.6,3.7-0.9,5.7-0.3c0.5,0.1,0.8,0.3,0.7,0.9
			c-0.1,1.1,0.2,2.2,0.5,3.2C76.6,180.7,76.6,181.1,76.3,181.3z M113.1,255.8c0.5,1.7,1.2,3.3,2.1,4.8c0.3,0.6,0.3,1-0.1,1.6
			c-1.8,2.4-3.4,4.8-5.3,7.1c-0.8,1-0.8,2,0,2.6c0.7,0.6,1.7,0.5,2.6-0.4c0.2-0.2,0.3-0.3,0.5-0.5c3-3.5,5.7-7.2,8.5-10.9
			c1.7-2.2,3.3-4.4,4.9-6.6c0.1-0.1,0.2-0.3,0.5-0.3c0.3,1.4,0.7,2.9,1.1,4.3c0.2,0.7,0.3,1.4,0.6,2.1c0.5,1.4,1.8,2,3.3,1.5
			c1.3-0.4,2.3-1.2,3.5-1.9c1.5-0.9,3.1-1.8,4.7-2.7c0.2,0.4,0,0.6-0.1,0.9c-0.6,1.7-1.2,3.5-1.7,5.2c-0.5,1.8,0.3,3.1,2.1,3.4
			c1.8,0.3,3.7,0,5.5,0.1c0.5,0,1.1,0,1.8,0c-0.5,0.7-1.2,0.8-1.7,1.2c-3.9,2.6-7.8,5.3-11.8,7.9c-4.5,2.9-8.9,6.1-13.5,8.8
			c-2.8,1.7-6,2.2-9.1,3c-0.1,0-0.3,0-0.4,0c-3.1-1-5.9-2.5-6.7-5.9c-0.8-3.4-1.3-6.8-1.8-10.2c-1-6.9-2.9-13.6-4.9-20.2
			c-1.6-5-3.9-9.6-5.8-14.6c4.6-1,9.1-0.7,13.7-0.1c0.5,0.1,0.9,0.2,0.8,0.9c-0.1,0.4,0.1,0.8,0.3,1.2
			C109.1,243.8,111.3,249.7,113.1,255.8z M120,230.7c-1.2,0.2-2.3,0.4-3.5,0.7c-0.5,0.1-0.9,0-1.2-0.3c-1-1.1-1.9-2.1-2.6-3.5
			c-0.3-0.7-0.8-1.4-1.4-1.9c-0.6-0.5-1.4-0.7-2-0.2c-0.7,0.5-0.9,1.3-0.4,2.1c1,1.7,1.6,3.6,2.9,5.3c-1.4-0.3-2.8-0.7-4.2-1
			c-4.9-1-9.8-1.2-14.8-0.4c-2.3,0.4-4.5,0.9-6.6,1.6c-0.7,0.2-1,0-1.3-0.6c-0.9-1.8-1.3-3.8-2.1-5.7c-1.9-4.9-3.1-10-4.2-15.1
			c-1.2-6-2.4-12.1-2-18.3c0.1-2.4,0.5-4.8,1.3-7.3c2.6,6.3,6.2,11.7,10.3,16.6c6,7.2,12.6,13.7,20.3,19.1c4.4,3.1,9.3,5.2,14.5,6.5
			c0.4,0.1,0.9,0.2,1.3,0.4c0.2,0.1,0.5,0.2,0.8,0.3C123.5,229.8,121.8,230.4,120,230.7z M151.9,211.8c-3.5,6-8.4,10.3-15.2,12.1
			c-3,0.8-6.1,0.8-9.1,0.2c-5.6-1.1-11-3-15.8-6.3c-3-2.1-5.7-4.5-8.5-6.8c-3.4-2.8-6.3-6.1-9.2-9.4c-2.7-3-5.3-6.1-7.5-9.6
			c-2.2-3.6-4.4-7.2-5.2-11.4c-0.2-0.8-0.5-1.7-0.8-2.5c-0.2-0.7-0.1-1.1,0.5-1.5c2.8-1.8,5.4-3.8,7.7-6.1c0.2-0.2,0.4-0.3,0.5-0.6
			c0.6-1,1.5-1.5,2.8-1.4c1.2,0,1.9-0.8,1.9-1.7c0-0.9-0.7-1.6-1.9-1.7c-5-0.4-9.9-1.7-14.8-2.8c-0.2,0-0.3-0.1-0.5-0.2
			c1.7-1.8,2.7-4,3.5-6.3c0.8-2.3,1.2-4.6,1.5-7.2c1.5,1.8,2.8,3.5,4.2,5.2c2.8,3.5,6.1,6.4,9.7,9.1c3.2,2.5,6.4,5.1,9.7,7.5
			c5.3,3.8,10.8,7.1,16.7,9.7c3.4,1.5,6.7,3,10.3,4.5c-0.7,0.3-1.2,0.5-1.8,0.7c-3.3,1.4-4.5,4.1-3.5,7.5c0.2,0.6,0.1,0.7-0.5,0.7
			c-3.3,0.1-6.5,0.7-9.3,2.7c-2.5,1.8-4.4,4.1-4.2,7.5c0.2,2.4,1.5,4.3,3.1,5.9c3.9,3.8,8.7,6.1,14,7c3.5,0.6,7,0.4,10.2-1.6
			c3.2-2,4.9-4.9,4.7-8.8c-0.1-2.1-1.1-3.9-2.6-5.4c2.5-1,4.4-2.5,5-5.1c0.5-2.6-0.2-4.9-2.2-7c1.3,0.3,2.3,0.6,3.4,0.8
			c1.3,0.3,2.7,0.6,4.1,0.9c0.7,0.1,1,0.4,1.1,1.2c0.2,1.3,0.6,2.5,0.9,3.8C155.8,201.4,154.9,206.8,151.9,211.8z M134.4,203.1
			c1.4,0.7,2.2,1.8,2.9,3.1c0.3,0.6,0.1,1-0.3,1.4c-1.2,1.1-2.6,1.5-4.2,1.4c-3.3-0.2-6.2-1.5-8.6-3.8c-0.5-0.5-0.6-0.9-0.3-1.5
			c0.7-1.4,1.8-2,3.3-2.2c0.4,0,0.8,0,1.2,0C130.5,201.5,132.5,202.1,134.4,203.1z M133.7,190.8c0.2-0.5,0.9-0.8,1.4-0.8
			c2.6,0.1,4.9,1.1,6.7,2.9c0.5,0.5,0.1,1.4-0.7,1.6c-0.4,0.1-0.8,0.2-1.2,0.1c-2.1-0.3-3.9-1.1-5.5-2.5
			C134,191.9,133.5,191.4,133.7,190.8z M237.7,173.2c2.1,4.8-0.6,10.4-5.6,11.8c-3,0.9-5.8,0.5-8.7-0.5c-0.8-0.3-1.3-0.8-1.7-1.5
			c-0.1-0.3-0.3-0.6-0.4-1c-0.9-3.5-3.4-4.7-6.8-4.9c-0.3,0-0.7-0.1-1.2-0.1c3.5-2.8,6.7-5.6,9.7-8.7c0.2-0.2,0.4-0.4,0.6-0.6
			c1.1-1.8,2.8-2.1,4.6-1.7C232.4,166.9,235.8,169,237.7,173.2z M234.7,139.6c-1.2,4.1-2.6,8.1-4.6,11.9c-1.9,3.6-4.5,6.7-7.2,9.8
			c-3.6,4.1-7.6,8-11.9,11.5c-3.4,2.8-7.4,4.5-11.3,6.4c-7.1,3.5-14.6,5.7-22.2,7.6c-3,0.7-6,0.9-9.1,1c-3.7,0.1-7.3-0.7-10.9-1.3
			c-9-1.4-17.7-4.1-26.1-7.7c-6-2.6-11.9-5.4-17.5-8.8c-7.3-4.5-14.1-9.8-20.5-15.5c-3.8-3.3-6.7-7.4-9.4-11.7
			c-3.9-6.2-6.2-13.1-7.6-20.2c-0.9-5-1.4-10.1-1.2-15.2c0.2-4.2,1.2-8.2,2.5-12.1c1.8-5.6,3.8-11.1,6.8-16.2
			C87.9,73.2,92,68.1,96.1,63c4.3-5.3,9.4-9.8,15.1-13.6c3.4-2.2,7.1-4,10.8-5.6c0.4-0.2,0.9-0.3,1.1-0.7c0.4-0.8,0.9-0.6,1.6-0.3
			c4.5,1.8,9,3.5,13.7,4.5c0.7,0.1,0.7,0.4,0.3,0.9c-3.4,4.9-7.5,9.1-12.8,11.9c-0.5,0.3-1,0.5-1.4,0.9c-1.9,1.4-1.7,3.8,0.4,4.8
			c1.1,0.6,2.4,0.6,3.6,0.8c4.9,0.6,9.7,0.4,14.5-0.3c5.3-0.7,10.5-1.9,15.6-3.4c2.3-0.6,4.6-1.3,6.8-2.3c0.7-0.3,1.1-0.2,1.6,0.3
			c4.2,4.2,7.6,8.9,9.4,14.7c0.3,1.1,0.7,2.2,1.1,3.2c0.8,1.8,2.3,2,3.7,0.7c1.6-1.5,3.4-2.8,5.2-4.2c4.8-3.8,9.3-8.1,12.9-13.1
			c0.3-0.5,0.7-0.5,1.2-0.4c5.6,1,11.2,1.4,16.8,1.5c0.4,0,0.9,0,1.2,0.4c2.2,2.9,4.8,5.4,6.7,8.6c3.2,5.6,6.6,11.1,8.9,17.2
			c1.8,4.9,2.8,10,3.6,15.1c0.6,4,0.8,7.9,0.8,12.5C238.6,124.5,236.8,132.1,234.7,139.6z"/>
		<path class="st2" d="M237.6,104.7c-0.8-5.1-1.8-10.2-3.6-15.1c-2.3-6.1-5.6-11.6-8.9-17.2c-1.8-3.2-4.5-5.7-6.7-8.6
			c-0.3-0.4-0.8-0.4-1.2-0.4c-5.6,0-11.2-0.5-16.8-1.5c-0.5-0.1-0.9,0-1.2,0.4c-3.6,5-8.1,9.3-12.9,13.1c-1.7,1.4-3.5,2.7-5.2,4.2
			c-1.4,1.3-2.9,1.2-3.7-0.7c-0.4-1-0.8-2.1-1.1-3.2c-1.7-5.8-5.1-10.5-9.4-14.7c-0.5-0.5-0.9-0.6-1.6-0.3c-2.2,0.9-4.5,1.6-6.8,2.3
			c-5.1,1.4-10.3,2.7-15.6,3.4c-4.9,0.6-9.7,0.9-14.5,0.3c-1.2-0.2-2.4-0.2-3.6-0.8c-2.1-1.1-2.3-3.4-0.4-4.8
			c0.4-0.3,0.9-0.6,1.4-0.9c5.4-2.8,9.4-7,12.8-11.9c0.4-0.5,0.4-0.8-0.3-0.9c-4.7-1-9.2-2.7-13.7-4.5c-0.6-0.3-1.1-0.5-1.6,0.3
			c-0.2,0.4-0.7,0.5-1.1,0.7c-3.7,1.7-7.4,3.4-10.8,5.6c-5.7,3.7-10.8,8.2-15.1,13.6c-4.1,5.1-8.2,10.2-11.6,15.9
			c-3,5.1-5,10.6-6.8,16.2c-1.3,4-2.3,8-2.5,12.1c-0.2,5.1,0.2,10.2,1.2,15.2c1.4,7.2,3.6,14,7.6,20.2c2.7,4.3,5.7,8.3,9.4,11.7
			c6.4,5.7,13.2,11,20.5,15.5c5.6,3.5,11.5,6.3,17.5,8.8c8.4,3.6,17,6.2,26.1,7.7c3.6,0.6,7.2,1.4,10.9,1.3c3.1-0.1,6.1-0.2,9.1-1
			c7.6-1.9,15.1-4,22.2-7.6c3.9-1.9,7.9-3.7,11.3-6.4c4.3-3.5,8.2-7.3,11.9-11.5c2.7-3,5.3-6.2,7.2-9.8c2-3.8,3.4-7.8,4.6-11.9
			c2.1-7.5,4-15.1,3.8-22.4C238.4,112.6,238.2,108.6,237.6,104.7z M205.8,96.9c1.6-1.6,3.4-2.7,5.7-2.8c2.1,0,4.4,1.9,5.1,4.2
			c0.4,1.4,0.5,2.8,1,4.2c0.3,0.8,0,1.5-0.8,1.9c-0.8,0.3-1.5,0-1.9-0.6c-0.7-1-1.1-2.1-1.6-3.2c-0.9-2.1-1.6-2.5-3.8-1.8
			c-0.6,0.2-1.2,0.5-1.8,0.8c-0.9,0.4-1.7,0.2-2.2-0.5C205,98.4,205.1,97.6,205.8,96.9z M188,129.7c1,0,1.7,0.8,1.7,1.8
			c0,1.2-1.3,2.5-2.4,2.5c-0.9,0-1.5-0.7-1.5-1.9C185.8,130.8,186.8,129.7,188,129.7z M178,128.2c1.1,0,1.9,0.9,1.8,2
			c0,1.2-0.9,2.1-2.1,2.1c-1.1,0-1.7-0.7-1.7-2C176,129,176.8,128.1,178,128.2z M157.1,94.3c0.6-0.8,1.3-1.7,2.1-2.4
			c1.8-1.9,3.5-4,6.1-5c3.1-1.2,6,0,7.2,3c0.3,0.7,0.3,1.4,0.3,2.2c0,0.6,0,1.2-0.2,1.7c-0.2,0.7-0.6,1.1-1.3,1.2
			c-0.7,0.1-1.4-0.2-1.7-0.9c-0.4-0.9-1-1.6-1.5-2.5c-0.6-1.1-1-1.2-2.2-0.7c-1.4,0.6-2.5,1.6-3.7,2.6c-0.8,0.7-1.6,1.5-2.4,2.2
			c-0.2,0.2-0.4,0.4-0.7,0.5c-0.6,0.4-1.3,0.4-1.9-0.2C156.6,95.6,156.6,94.9,157.1,94.3z M173.1,114.2c-0.3,2.3-1.3,4.9-3.5,6.8
			c-0.8,0.7-1.9,0.9-3,0.9c-1-0.1-1.6-0.7-1.9-1.6c-0.9-2.9,0.8-7.6,3.4-9.2c1.1-0.7,2.2-1,3.4-0.4
			C172.8,111.3,173.1,112.4,173.1,114.2z M201.8,151.7c-1.1,1.3-2.3,2.4-3.8,3.1c-2.1,0.9-4,2.3-6.4,2.5c-0.4,0-0.6,0.4-0.8,0.6
			c-4.1,3-7.1,7-10.1,11c-0.4,0.5-0.4,0.9,0,1.5c1.3,2,0.9,4.1-0.1,6c-1,1.9-2.6,3.2-4.5,4.3c-3.5,1.9-7.3,2.7-11.2,2.7
			c-6.4,0.1-11.9-2.1-15.8-7.3c-2.7-3.6-4.2-7.6-2.3-12.1c1.1-2.7,2.5-5.2,4.2-7.6c1.9-2.8,3.8-5.7,5.7-8.5c0.2-0.3,0.4-0.5,0.2-0.9
			c-2.2-4.4,0.5-10.7,6.3-12.5c3.4-1,6.8-1.1,10.2-0.2c5.6,1.5,11.2,1.8,16.9,1.9c2.9,0,5.8,0.2,8.5,1.5
			C204.1,140.3,205.6,147.1,201.8,151.7z M203,127.4c-0.9,0.5-1.9,0.7-2.7,0c-0.9-0.7-1.6-1.7-1.3-2.9c0.6-2.6,1.8-5,3.7-7
			c0.5-0.5,1.1-0.9,1.8-1.1c2-0.6,3.8,0.7,3.7,3C207.8,122.6,206.1,125.5,203,127.4z"/>
		<path class="st3" d="M153.7,191.8c-0.1-0.8-0.4-1-1.1-1.2c-1.4-0.3-2.7-0.6-4.1-0.9c-1-0.2-2.1-0.5-3.4-0.8c2.1,2.1,2.8,4.4,2.2,7
			c-0.5,2.6-2.5,4.1-5,5.1c1.5,1.6,2.5,3.3,2.6,5.4c0.2,3.9-1.5,6.8-4.7,8.8c-3.1,2-6.7,2.2-10.2,1.6c-5.3-0.9-10.1-3.2-14-7
			c-1.7-1.6-2.9-3.5-3.1-5.9c-0.3-3.4,1.7-5.6,4.2-7.5c2.8-2,5.9-2.7,9.3-2.7c0.6,0,0.7-0.1,0.5-0.7c-1.1-3.4,0.2-6.1,3.5-7.5
			c0.6-0.2,1.1-0.5,1.8-0.7c-3.5-1.5-6.9-3-10.3-4.5c-5.9-2.6-11.4-6-16.7-9.7c-3.3-2.4-6.5-5-9.7-7.5c-3.5-2.7-6.9-5.6-9.7-9.1
			c-1.3-1.7-2.7-3.3-4.2-5.2c-0.3,2.6-0.8,4.9-1.5,7.2c-0.8,2.3-1.7,4.5-3.5,6.3c0.2,0.1,0.4,0.2,0.5,0.2c4.9,1.1,9.8,2.3,14.8,2.8
			c1.2,0.1,1.9,0.7,1.9,1.7c0,1-0.7,1.8-1.9,1.7c-1.3,0-2.1,0.4-2.8,1.4c-0.1,0.2-0.4,0.4-0.5,0.6c-2.3,2.3-4.9,4.3-7.7,6.1
			c-0.6,0.4-0.8,0.8-0.5,1.5c0.3,0.8,0.6,1.6,0.8,2.5c0.8,4.2,3,7.8,5.2,11.4c2.2,3.4,4.8,6.5,7.5,9.6c2.9,3.3,5.8,6.6,9.2,9.4
			c2.8,2.3,5.6,4.7,8.5,6.8c4.8,3.3,10.1,5.2,15.8,6.3c3,0.6,6.1,0.6,9.1-0.2c6.8-1.8,11.7-6.2,15.2-12.1c3-5.1,3.9-10.5,2.7-16.2
			C154.4,194.3,153.9,193.1,153.7,191.8z"/>
		<path class="st2" d="M106.1,237c0.1-0.7-0.3-0.8-0.8-0.9c-4.5-0.7-9.1-0.9-13.7,0.1c1.9,4.9,4.2,9.6,5.8,14.6
			c2.1,6.6,3.9,13.3,4.9,20.2c0.5,3.4,1,6.9,1.8,10.2c0.8,3.3,3.5,4.9,6.7,5.9c0.1,0,0.3,0,0.4,0c3.1-0.8,6.3-1.3,9.1-3
			c4.6-2.8,9-5.9,13.5-8.8c4-2.6,7.9-5.2,11.8-7.9c0.5-0.3,1.2-0.5,1.7-1.2c-0.7,0-1.2,0-1.8,0c-1.8-0.1-3.7,0.2-5.5-0.1
			c-1.8-0.3-2.6-1.6-2.1-3.4c0.5-1.7,1.1-3.5,1.7-5.2c0.1-0.2,0.3-0.5,0.1-0.9c-1.6,0.9-3.1,1.8-4.7,2.7c-1.1,0.7-2.2,1.5-3.5,1.9
			c-1.4,0.5-2.8-0.1-3.3-1.5c-0.2-0.7-0.4-1.4-0.6-2.1c-0.4-1.5-0.7-2.9-1.1-4.3c-0.4,0-0.4,0.2-0.5,0.3c-1.6,2.2-3.3,4.4-4.9,6.6
			c-2.8,3.7-5.4,7.4-8.5,10.9c-0.1,0.2-0.3,0.3-0.5,0.5c-0.9,0.8-1.9,1-2.6,0.4c-0.7-0.6-0.8-1.6,0-2.6c1.9-2.3,3.5-4.8,5.3-7.1
			c0.4-0.5,0.5-1,0.1-1.6c-0.9-1.5-1.6-3.1-2.1-4.8c-1.8-6.1-4-11.9-6.7-17.6C106.2,237.8,106,237.4,106.1,237z"/>
		<path class="st4" d="M123.1,228.3c-5.2-1.3-10.1-3.4-14.5-6.5c-7.7-5.4-14.3-11.9-20.3-19.1c-4.2-5-7.8-10.3-10.3-16.6
			c-0.8,2.6-1.2,4.9-1.3,7.3c-0.3,6.2,0.8,12.2,2,18.3c1.1,5.1,2.3,10.2,4.2,15.1c0.7,1.9,1.2,3.9,2.1,5.7c0.3,0.6,0.6,0.8,1.3,0.6
			c2.2-0.7,4.4-1.3,6.6-1.6c5-0.8,9.9-0.6,14.8,0.4c1.4,0.3,2.8,0.6,4.2,1c-1.3-1.6-2-3.5-2.9-5.3c-0.4-0.8-0.3-1.6,0.4-2.1
			c0.7-0.5,1.4-0.3,2,0.2c0.6,0.5,1.1,1.2,1.4,1.9c0.6,1.3,1.6,2.4,2.6,3.5c0.3,0.4,0.7,0.5,1.2,0.3c1.1-0.3,2.3-0.6,3.5-0.7
			c1.8-0.3,3.5-0.9,5.2-1.7c-0.3-0.1-0.6-0.2-0.8-0.3C123.9,228.5,123.5,228.4,123.1,228.3z"/>
		<path class="st2" d="M78.1,145.5c0-0.5,0-1,0-1.4c0-0.3-0.1-0.5-0.4-0.6c-1.7-0.9-3.3-1.7-4.9-2.6c-3.3-1.8-7-2.8-10.4-4.3
			c-2.9-1.3-5.9-1.3-8.9-0.8c-4.6,0.9-8.9,2.7-12.8,5.1c-4.3,2.7-7.2,6.3-8.1,11.4c-1,5.6,3.8,10.1,9.1,8.6c2.3-0.7,5.1-2.7,5.4-6.7
			c0.1-1.1,0.2-2.2,1-3.1c3.4-3.6,7.4-6,12.5-6.1c4.7-0.1,8.5,2,11.8,5.2c1.4,1.3,2.2,3.1,3.6,4.4c0.4,0.4,0.6,0.6,0.8-0.2
			C77.7,151.6,78.2,148.6,78.1,145.5z"/>
		<path class="st2" d="M76.5,180.4c-0.3-1.1-0.6-2.1-0.5-3.2c0-0.6-0.2-0.7-0.7-0.9c-1.9-0.5-3.8-0.3-5.7,0.3
			c-3.1,1-5.8,2.7-8.5,4.5c-5,3.3-10.1,6.3-16.2,7.8c1.9,1,3.9,1.3,5.8,1.8c2.2,0.5,3.1,1.9,2.7,4.1c-0.2,1.4-0.9,2.7-1.5,4
			c0.4,0.1,0.7,0,1-0.1c2-0.5,3.9-1.4,5.8-2.2c1.8-0.7,3.3-0.1,4,1.8c0.2,0.4,0.3,0.9,0.4,1.4c0.4,1.4,0,2.9,0,4.4
			c1.2-0.5,2.1-1.1,3-1.9c2.1-1.6,3.6-3.8,5.6-5.5c0.4-0.3,0.3-0.7,0.3-1.2c0.1-3.4,0.6-6.7,1.6-10c0.5-1.6,1.2-3.1,2.5-4.2
			C76.6,181.1,76.6,180.7,76.5,180.4z"/>
		<path class="st2" d="M223.5,167.7c-0.1,0.2-0.4,0.4-0.6,0.6c-2.9,3.1-6.2,5.9-9.7,8.7c0.5,0.1,0.9,0.1,1.2,0.1
			c3.3,0.2,5.8,1.4,6.8,4.9c0.1,0.3,0.3,0.6,0.4,1c0.3,0.7,0.9,1.2,1.7,1.5c2.8,1,5.7,1.3,8.7,0.5c5-1.5,7.8-7.1,5.6-11.8
			c-1.8-4.1-5.3-6.2-9.6-7.1C226.2,165.6,224.6,165.9,223.5,167.7z"/>
		<path class="st2" d="M155.8,37.2c2.2,2.7,5.2,4.4,8.1,6.1c3.5,2,7.3,2.7,11.2,3c5.9,0.6,11.7-0.3,17.3-2.2
			c-0.1-0.4-0.3-0.4-0.5-0.4c-11.4-5.5-23.3-8.6-36-8.2c-0.4,0-0.9-0.2-1.1,0.2c-0.1,0.3,0.3,0.6,0.5,0.9
			C155.5,36.8,155.6,37,155.8,37.2z"/>
		<path class="st3" d="M127.2,201.6c-1.5,0.1-2.6,0.8-3.3,2.2c-0.3,0.6-0.2,1.1,0.3,1.5c2.4,2.3,5.3,3.5,8.6,3.8
			c1.6,0.1,3-0.4,4.2-1.4c0.4-0.4,0.6-0.8,0.3-1.4c-0.7-1.3-1.6-2.4-2.9-3.1c-1.9-1-3.9-1.6-6-1.5
			C128,201.6,127.6,201.6,127.2,201.6z"/>
		<path class="st5" d="M139.9,194.7c0.4,0.1,0.8,0,1.2-0.1c0.7-0.2,1.2-1.2,0.7-1.6c-1.8-1.9-4.1-2.9-6.7-2.9
			c-0.6,0-1.2,0.3-1.4,0.8c-0.2,0.5,0.2,1,0.7,1.4C136,193.6,137.8,194.4,139.9,194.7z"/>
		<path class="st1" d="M198.7,137.7c-2.7-1.3-5.6-1.4-8.5-1.5c-5.7-0.1-11.4-0.3-16.9-1.9c-3.4-0.9-6.8-0.8-10.2,0.2
			c-5.8,1.7-8.6,8.1-6.3,12.5c0.2,0.4,0,0.6-0.2,0.9c-1.9,2.8-3.8,5.7-5.7,8.5c-1.6,2.4-3,4.9-4.2,7.6c-1.9,4.5-0.4,8.5,2.3,12.1
			c3.9,5.2,9.3,7.4,15.8,7.3c3.9-0.1,7.7-0.9,11.2-2.7c1.9-1,3.5-2.3,4.5-4.3c1.1-2,1.4-4,0.1-6c-0.4-0.6-0.3-1,0-1.5
			c3-4,6-8,10.1-11c0.3-0.2,0.5-0.6,0.8-0.6c2.4-0.2,4.3-1.5,6.4-2.5c1.5-0.7,2.7-1.8,3.8-3.1C205.6,147.1,204.1,140.3,198.7,137.7z
			 M198.8,149.7c-1.8,2-4.1,3-6.5,4c-3.4,1.4-6.2,3.5-8.7,6.1c-2.2,2.3-4.3,4.6-5.9,7.4c-0.1,0.2-0.2,0.3-0.5,0.5
			c-1.4,0.7-1.7,1.7-0.6,3c0.9,1,1.3,2.1,0.9,3.4c-0.3,0.9-0.8,1.6-1.5,2.2c-1.6,1.5-3.5,2.3-5.6,2.9c-1.8,0.5-3.7,0.8-5.6,0.7
			c-4.6,0.1-8.6-1.3-11.9-4.6c-3-3-4.6-7.1-2.1-11.7c1.7-3.2,3.7-6.3,5.7-9.4c0.8-1.3,1.5-2.5,2.4-3.8c0.7-1,0.7-2.1,1.1-3.1
			c0.1-0.3,0-0.7-0.1-1c-1.4-3.2,0.7-6.8,4.1-8c2.6-0.9,5.1-0.9,7.7-0.3c6.2,1.5,12.5,1.8,18.8,1.9c2.2,0,4.5,0.2,6.6,1.1
			C201,142.5,201.3,147,198.8,149.7z"/>
		<path class="st6" d="M152,125.3c-0.5-1.2-1.2-2.2-2.3-2.9c-2.7-1.7-5.7-2.2-8.9-1.6c-1.6,0.3-3.2,0.5-4.5,1.6
			c-1.3,1.1-2.1,2.5-1.9,4.2c0.2,1.9,1.4,3.1,3.2,3.6c1.8,0.5,3.7,0.8,5.9,0.8c1.8-0.1,3.8-0.1,5.8-0.6
			C151.6,129.8,152.9,127.4,152,125.3z"/>
		<path class="st6" d="M221.9,142.5c-2.8-3.2-6.4-4.8-10.8-4.4c-1.2,0.1-2.1,0.5-2.4,1.7c-1,2.4-0.8,3.9,1,5.4
			c2.5,2.2,5.4,3.6,8.8,3.9c0.8,0.1,1.6,0,2.3-0.4C223.4,147.1,223.9,144.7,221.9,142.5z"/>
		<path class="st1" d="M159,96.3c0.2-0.1,0.5-0.4,0.7-0.5c0.8-0.7,1.6-1.5,2.4-2.2c1.2-1,2.3-2,3.7-2.6c1.2-0.5,1.6-0.4,2.2,0.7
			c0.5,0.8,1.1,1.5,1.5,2.5c0.3,0.7,0.9,1,1.7,0.9c0.7-0.1,1.1-0.6,1.3-1.2c0.2-0.6,0.1-1.1,0.2-1.7c0.1-0.7,0-1.5-0.3-2.2
			c-1.2-3-4.1-4.2-7.2-3c-2.6,1-4.2,3.1-6.1,5c-0.7,0.8-1.4,1.6-2.1,2.4c-0.5,0.6-0.5,1.3,0.1,1.9C157.7,96.8,158.3,96.7,159,96.3z"
			/>
		<path class="st1" d="M171.6,110.6c-1.2-0.7-2.3-0.3-3.4,0.4c-2.6,1.7-4.3,6.3-3.4,9.2c0.3,0.9,0.9,1.5,1.9,1.6
			c1.1,0.1,2.2-0.1,3-0.9c2.2-1.9,3.1-4.5,3.5-6.8C173.1,112.4,172.8,111.3,171.6,110.6z"/>
		<path class="st1" d="M204.5,116.3c-0.7,0.2-1.3,0.6-1.8,1.1c-1.9,2-3,4.4-3.7,7c-0.3,1.2,0.3,2.2,1.3,2.9c0.9,0.7,1.9,0.5,2.7,0
			c3.1-1.9,4.7-4.7,5.2-8C208.3,117,206.5,115.7,204.5,116.3z"/>
		<path class="st1" d="M207.6,99.6c0.6-0.3,1.2-0.6,1.8-0.8c2.2-0.7,2.9-0.4,3.8,1.8c0.5,1.1,0.9,2.2,1.6,3.2c0.5,0.7,1.2,1,1.9,0.6
			c0.8-0.3,1.1-1.1,0.8-1.9c-0.5-1.4-0.6-2.8-1-4.2c-0.7-2.3-3-4.2-5.1-4.2c-2.3,0.1-4.1,1.2-5.7,2.8c-0.7,0.7-0.8,1.5-0.3,2.2
			C205.9,99.8,206.7,99.9,207.6,99.6z"/>
		<path class="st7" d="M177.7,132.3c1.2,0,2.1-0.9,2.1-2.1c0-1.2-0.8-2-1.8-2c-1.2,0-2,0.8-2,2.2C176,131.6,176.6,132.3,177.7,132.3
			z"/>
		<path class="st8" d="M187.3,133.9c1.1,0,2.4-1.3,2.4-2.5c0-1-0.8-1.8-1.7-1.8c-1.2,0-2.2,1.1-2.2,2.4
			C185.8,133.2,186.4,133.9,187.3,133.9z"/>
		<path class="st9" d="M197.2,140.9c-2.1-0.9-4.4-1.1-6.6-1.1c-6.3-0.1-12.6-0.4-18.8-1.9c-2.6-0.6-5.2-0.6-7.7,0.3
			c-3.5,1.2-5.5,4.8-4.1,8c0.1,0.3,0.2,0.7,0.1,1c-0.4,1-0.5,2.2-1.1,3.1c-0.8,1.2-1.6,2.5-2.4,3.8c-1.9,3.1-4,6.2-5.7,9.4
			c-2.4,4.6-0.8,8.7,2.1,11.7c3.3,3.3,7.3,4.7,11.9,4.6c1.9,0,3.8-0.2,5.6-0.7c2.1-0.5,4-1.4,5.6-2.9c0.7-0.6,1.2-1.3,1.5-2.2
			c0.4-1.3,0-2.4-0.9-3.4c-1.1-1.2-0.9-2.3,0.6-3c0.2-0.1,0.4-0.3,0.5-0.5c1.5-2.8,3.7-5.1,5.9-7.4c2.5-2.6,5.3-4.7,8.7-6.1
			c2.4-1,4.8-2,6.5-4C201.3,147,201,142.5,197.2,140.9z M184.9,154.2c-1.1,0.3-2.3,0.4-3.4,0.6c-0.4,0.1-0.8,0.1-0.8,0.7
			c0,0.3-0.2,0.6-0.4,0.7c-2.7,2.3-4.3,5.4-6.4,8.1c-1.2,1.5-2.3,3-3.7,4.3c-2.2,2-4.7,2.4-6.9,1.1c-1.7-1-2.6-2.8-2.5-5.3
			c0-2.7,1.4-5.1,2.9-7.5c1-1.7,2.3-3.2,3.5-4.7c0.2-0.3,0.3-0.5,0.1-0.9c-0.4-0.6-0.5-1.4,0.1-1.9c0.7-0.6,1.4-0.5,2.1-0.1
			c2,1.2,4.2,1.8,6.4,2.2c2.6,0.4,5.2,0,7.8-0.3c0.2,0,0.4-0.1,0.7-0.1c1-0.1,1.7,0.4,1.8,1.2C186.4,153.2,185.9,153.9,184.9,154.2z
			"/>
		<path class="st1" d="M184.4,151.1c-0.2,0-0.4,0.1-0.7,0.1c-2.6,0.3-5.2,0.7-7.8,0.3c-2.3-0.4-4.4-1-6.4-2.2
			c-0.7-0.4-1.5-0.6-2.1,0.1c-0.6,0.6-0.6,1.3-0.1,1.9c0.3,0.4,0.2,0.6-0.1,0.9c-1.2,1.6-2.4,3.1-3.5,4.7c-1.5,2.4-2.9,4.8-2.9,7.5
			c-0.1,2.4,0.8,4.3,2.5,5.3c2.2,1.3,4.7,0.9,6.9-1.1c1.4-1.3,2.5-2.8,3.7-4.3c2.1-2.7,3.8-5.8,6.4-8.1c0.2-0.2,0.4-0.5,0.4-0.7
			c0-0.6,0.4-0.6,0.8-0.7c1.1-0.2,2.3-0.3,3.4-0.6c1-0.2,1.5-1,1.3-1.8C186.1,151.5,185.4,151.1,184.4,151.1z M167.4,166.6
			c-0.6,0.5-1.3,0.8-2.2,0.4c-0.9-0.4-1-1.2-1.1-2c0-1.5,0.5-2.8,1.2-4.1c0.5-0.9,1-1.8,1.6-2.7c0.1-0.2,0.2-0.5,0.6-0.2
			c1.5,1.1,3.3,1.3,5.1,1.5c0.1,0,0.2,0.1,0.5,0.2C171.2,162.1,169.7,164.7,167.4,166.6z M174.4,156.5c-1.7,0-3.4-0.3-5-0.9
			c-0.3-0.1-0.6-0.2-0.3-0.6c0.9-1.6,0.9-1.6,2.6-1c1.6,0.6,3.3,0.9,5.1,1.2C176.1,155.9,175.6,156.5,174.4,156.5z"/>
		<path class="st10" d="M167.5,158c-0.4-0.3-0.5,0-0.6,0.2c-0.5,0.9-1.1,1.8-1.6,2.7c-0.7,1.3-1.2,2.6-1.2,4.1c0,0.8,0.2,1.6,1.1,2
			c0.8,0.4,1.5,0.1,2.2-0.4c2.3-1.9,3.8-4.6,5.7-6.9c-0.3-0.1-0.4-0.1-0.5-0.2C170.8,159.3,169,159.1,167.5,158z"/>
		<path class="st11" d="M169.2,154.9c-0.3,0.5,0,0.5,0.3,0.6c1.6,0.7,3.2,0.9,5,0.9c1.2,0,1.7-0.6,2.4-1.4c-1.8-0.3-3.5-0.6-5.1-1.2
			C170.1,153.3,170.1,153.3,169.2,154.9z"/>
	</g>
</g>
</svg>
