<?xml version="1.0" encoding="utf-8"?>
<!-- Generator: Adobe Illustrator 19.1.0, SVG Export Plug-In . SVG Version: 6.00 Build 0)  -->
<svg version="1.1" id="圖層_1" xmlns="http://www.w3.org/2000/svg" xmlns:xlink="http://www.w3.org/1999/xlink" x="0px" y="0px"
	 viewBox="-251 208.7 226.8 99.2" style="enable-background:new -251 208.7 226.8 99.2;" xml:space="preserve">
<g>
	<g>
		<path d="M-111.5,262.6c0.9,0.3,2.6,0.3,3,1.5c0.5,2.5-4.6,8-8.5,9.9c-3.9,1.9-5.4,1.8-6.5,3.5c-1,1.7,0.8,9.8,5.1,10.8
			c6.2,1.4,12.2-3.7,13.8-3.3c3.3,0.7-6.2,16.9-18.3,14.5c-5-1-7.1-11.4-9.5-10.9c-3.3,0.6-9.8,6-11.9,4.4c-2.1-1.6-4.7-4.5-2.9-5.9
			c5.6-4.6,13-11.3,10.5-10.5c-0.3,0.1-4-0.5-8.1-1.4c-5.2-1.2-6.6-4.7-6.2-8.9c0.3-3,3.6-9,8.4-7.9c4.7,1.1,11.9,3.8,17.3,4
			C-120.6,262.4-116,262.2-111.5,262.6L-111.5,262.6z"/>
		<path d="M-128.7,237.2c0.3,0.1,0.6,0.2,0.8,0.3c1,0.6,1.6,1.7,2.4,2.5c1.2,1.2,2.4,2.1,3.8,2.9c5.8,3.1,12.8,3.3,12.5,8.6
			c-0.3,5.3-7.8,6.7-12.7,6.1c-4.9-0.5-14.5-3.8-15-7.4c-0.6-4.2,2.8-11.4,6.5-12.8C-129.4,237.2-130,237.3-128.7,237.2z"/>
	</g>
	<path d="M-158,286c2.8-9.3-0.8-19.3-8.7-27.2c4.5-2.1,7.9-5.9,9.7-11.7c4.3-14.1-5-29.3-20.9-34c-15.9-4.7-32.3,3-36.6,17.1
		c-1.7,5.6-0.9,10.5,1.7,14.6c-11.5,2.2-20.5,8.7-23.5,18.2c-4.8,15.6,8.8,33.5,30.4,39.8S-162.8,301.6-158,286z M-182.8,228.8
		c5.9,1.6,9.7,6.3,8.4,10.6c-1.2,4.2-7,6.3-12.8,4.7c-5.9-1.6-9.7-6.3-8.4-10.6C-194.4,229.3-188.7,227.2-182.8,228.8z
		 M-195.6,279.9c-8.4-3.6-13.3-10.8-11-16c2.3-5.2,11-6.5,19.3-2.9c8.4,3.6,13.3,10.8,11,16C-178.6,282.2-187.3,283.5-195.6,279.9z"
		/>
	<g>
		<g>
			<path d="M-47.3,252.2c1.8,0.7,2.4,3.7,1.7,6.1c-1.9,5.8-3.1,6.8-6.3,11.2c1,0.9,1.9,1.7,2.9,2.5c8.7,7.3,10.1,11.7,9.7,14.2
				c-0.4,2.6-0.6,5-3.9,6.8c-3.2,1.7-3.9,2.1-5.5,1.1c-1.5-1,0-3.4-1.6-6.6c-2.5-3.9-6-6.4-9-9.7c-6.5,6.2-13.9,12.5-21.5,14.1
				c-2.1,0.4-4.7,0.6-5.9-1.9c-0.6-3.2,7.4-8.8,8.8-10c4-3.2,8.1-6.4,11.8-10.2c-2.9-3.9-10.1-13.7-8-20.7c0.8-2.3,6,5.4,9,8.3
				c1.8,1.8,3.7,3.5,5.6,5.2c3.9-4.4,3.5-4.5,7.5-8.6C-52,254-49.1,251.5-47.3,252.2z"/>
			<path d="M-67.2,241.2c0.7,0.3,0.4,0.1,0.9,0.4c2.6,2.5-0.5,12.8-13.9,24.8c-13.4,12-22,13.1-24.1,7.5c-1.4-3.8,7.1-8.7,17.3-17.9
				c3.9-3.5,7.8-7.2,11.8-10.5C-72.7,243.6-69.9,241.1-67.2,241.2L-67.2,241.2z"/>
		</g>
		<ellipse cx="-79.7" cy="273.4" rx="5.1" ry="4.6"/>
		<ellipse cx="-61.8" cy="289.6" rx="5.1" ry="4.6"/>
	</g>
	<g>
		<path d="M-140.5,211.9h2.7l4.1,11.9l4-11.9h2.7V226h-1.8v-8.3c0-0.3,0-0.8,0-1.4c0-0.7,0-1.4,0-2.1l-4,11.9h-1.9l-4.1-11.9v0.4
			c0,0.3,0,0.9,0,1.6c0,0.7,0,1.2,0,1.6v8.3h-1.8V211.9z"/>
		<path d="M-123.3,215.7h1.6v1.8c0.1-0.3,0.5-0.8,1-1.3c0.5-0.5,1.1-0.7,1.8-0.7c0,0,0.1,0,0.2,0c0.1,0,0.2,0,0.4,0v1.8
			c-0.1,0-0.2,0-0.3,0c-0.1,0-0.2,0-0.3,0c-0.9,0-1.5,0.3-2,0.8c-0.5,0.6-0.7,1.2-0.7,1.9v5.9h-1.7V215.7z"/>
		<path d="M-116.5,223.9h2v2.1h-2V223.9z"/>
		<path d="M-109.8,217.9c-0.5-0.5-0.8-1.2-0.8-2c0-1,0.4-1.9,1.1-2.6c0.7-0.7,1.8-1.1,3.2-1.1c1.3,0,2.4,0.3,3.1,1
			c0.7,0.7,1.1,1.5,1.1,2.4c0,0.9-0.2,1.6-0.7,2.1c-0.2,0.3-0.6,0.6-1.1,0.9c0.6,0.3,1,0.6,1.3,0.9c0.6,0.6,0.9,1.5,0.9,2.5
			c0,1.2-0.4,2.2-1.2,3.1c-0.8,0.8-2,1.3-3.4,1.3c-1.3,0-2.5-0.4-3.4-1.1c-0.9-0.7-1.4-1.8-1.4-3.2c0-0.8,0.2-1.5,0.6-2.1
			c0.4-0.6,1-1,1.8-1.4C-109.2,218.5-109.5,218.2-109.8,217.9z M-104.2,224.2c0.5-0.4,0.8-1.1,0.8-1.9c0-0.9-0.3-1.6-0.8-2
			c-0.5-0.5-1.2-0.7-2.1-0.7c-0.8,0-1.5,0.2-2,0.7c-0.5,0.5-0.8,1.1-0.8,2c0,0.7,0.2,1.3,0.7,1.9c0.5,0.5,1.2,0.8,2.2,0.8
			C-105.4,224.8-104.8,224.6-104.2,224.2z M-104.6,217.4c0.4-0.4,0.6-0.9,0.6-1.5c0-0.5-0.2-1-0.6-1.4c-0.4-0.4-1-0.6-1.9-0.6
			c-0.8,0-1.4,0.2-1.8,0.6c-0.4,0.4-0.6,0.9-0.6,1.5c0,0.6,0.2,1.2,0.7,1.5s1,0.5,1.7,0.5C-105.6,218-105,217.8-104.6,217.4z"/>
		<path d="M-92.1,215.7h1.9c-0.2,0.7-0.8,2.2-1.6,4.5c-0.6,1.8-1.2,3.2-1.6,4.3c-1,2.6-1.7,4.2-2.1,4.8c-0.4,0.6-1.1,0.9-2.1,0.9
			c-0.2,0-0.4,0-0.6,0c-0.1,0-0.3-0.1-0.5-0.1v-1.6c0.3,0.1,0.5,0.1,0.7,0.2c0.1,0,0.3,0,0.4,0c0.3,0,0.6-0.1,0.7-0.2
			c0.1-0.1,0.3-0.2,0.4-0.4c0-0.1,0.1-0.3,0.3-0.8c0.2-0.5,0.3-0.8,0.4-1.1l-3.8-10.6h2l2.8,8.4L-92.1,215.7z"/>
		<path d="M-81.3,216c0.7,0.3,1.2,0.8,1.6,1.3c0.3,0.5,0.6,1.1,0.7,1.8c0.1,0.5,0.2,1.2,0.2,2.3h-7.5c0,1,0.3,1.9,0.7,2.5
			c0.5,0.6,1.2,0.9,2.1,0.9c0.9,0,1.6-0.3,2.1-0.9c0.3-0.3,0.5-0.7,0.6-1.2h1.7c0,0.4-0.2,0.8-0.4,1.3c-0.3,0.5-0.5,0.8-0.8,1.1
			c-0.5,0.5-1.2,0.9-1.9,1c-0.4,0.1-0.9,0.2-1.4,0.2c-1.3,0-2.4-0.5-3.2-1.4c-0.9-0.9-1.3-2.2-1.3-3.9c0-1.7,0.4-3,1.3-4
			c0.9-1,2.1-1.5,3.5-1.5C-82.7,215.5-82,215.6-81.3,216z M-80.7,220c-0.1-0.7-0.2-1.3-0.5-1.8c-0.5-0.8-1.3-1.2-2.4-1.2
			c-0.8,0-1.4,0.3-2,0.9c-0.5,0.6-0.8,1.3-0.8,2.2H-80.7z"/>
		<path d="M-75.8,215.7h1.6v1.5c0.5-0.6,1-1,1.5-1.3c0.5-0.3,1.1-0.4,1.8-0.4c1.5,0,2.4,0.5,3,1.5c0.3,0.6,0.4,1.4,0.4,2.4v6.6h-1.8
			v-6.5c0-0.6-0.1-1.1-0.3-1.5c-0.3-0.6-0.9-1-1.7-1c-0.4,0-0.7,0-1,0.1c-0.5,0.1-0.9,0.4-1.2,0.8c-0.3,0.3-0.5,0.7-0.6,1.1
			c-0.1,0.4-0.1,0.9-0.1,1.6v5.4h-1.7V215.7z"/>
	</g>
</g>
</svg>
